<svg width="192" height="96" viewBox="0 0 192 96" fill="none" xmlns="http://www.w3.org/2000/svg">
<path d="M63.8607 10.6333V84.34C63.8607 90.1398 59.0228 94.973 53.2172 94.973H10.6435C4.83794 94.973 0 90.1398 0 84.34V10.6333C0 4.83345 4.83794 0.000244141 10.6435 0.000244141H53.2172C59.0228 0.000244141 63.8607 4.59179 63.8607 10.6333Z" fill="#F9B233"/>
<path d="M63.6188 18.8499H0V24.6495H63.6188V18.8499Z" fill="#5E4A4C"/>
<path d="M16.9338 0H13.0635V94.9728H16.9338V0Z" fill="#5E4A4C"/>
<path d="M51.5256 0H47.6553V87.7229H51.5256V0Z" fill="#5E4A4C"/>
<path d="M181.42 94.7397H85.6292C80.7912 94.7397 76.9209 90.8731 76.9209 86.0399V26.108C76.9209 21.2747 80.7912 17.4081 85.6292 17.4081H181.42C186.258 17.4081 190.128 21.2747 190.128 26.108V86.0399C190.37 90.8731 186.5 94.7397 181.42 94.7397Z" fill="black"/>
<path d="M145.622 12.3326C137.881 9.19104 129.173 9.19104 121.432 12.3326C119.981 12.8159 118.529 12.3326 117.804 11.1243C117.078 9.91602 117.804 8.22441 119.497 7.49943C128.447 3.87454 138.607 3.87454 147.557 7.49943C149.25 8.22441 149.976 9.91602 149.25 11.1243C148.525 12.3326 147.073 12.8159 145.622 12.3326Z" fill="black"/>
<path d="M120.704 17.1658H118.769V10.6408C118.769 10.1575 119.252 9.67419 119.736 9.67419C120.22 9.67419 120.704 10.1575 120.704 10.6408V17.1658V17.1658Z" fill="#DADADA"/>
<path d="M148.524 17.1658H146.589V10.6408C146.589 10.1575 147.073 9.67419 147.556 9.67419C148.04 9.67419 148.524 10.1575 148.524 10.6408V17.1658V17.1658Z" fill="#DADADA"/>
<path d="M89.0166 28.5242C89.0166 29.0075 88.5328 29.4908 88.049 29.4908H76.9217C76.4379 29.4908 75.9541 29.0075 75.9541 28.5242V24.8993C75.9541 20.3078 79.8245 16.4412 84.4205 16.4412H88.049C88.5328 16.4412 89.0166 16.9245 89.0166 17.4078V28.5242Z" fill="#DADADA"/>
<path d="M178.036 28.5242C178.036 29.0075 178.52 29.4908 179.004 29.4908H190.131C190.615 29.4908 191.099 29.0075 191.099 28.5242V24.8993C191.099 20.3078 187.228 16.4412 182.632 16.4412H179.004C178.52 16.4412 178.036 16.9245 178.036 17.4078V28.5242Z" fill="#DADADA"/>
<path d="M178.036 83.3811C178.036 82.8977 178.52 82.4144 179.004 82.4144H190.131C190.615 82.4144 191.099 82.8977 191.099 83.3811V87.006C191.099 91.5975 187.228 95.4641 182.632 95.4641H179.004C178.52 95.4641 178.036 94.9808 178.036 94.4975V83.3811Z" fill="#DADADA"/>
<path d="M89.0166 83.3811C89.0166 82.8977 88.5328 82.4144 88.049 82.4144H76.9217C76.4379 82.4144 75.9541 82.8977 75.9541 83.3811V87.006C75.9541 91.5975 79.8245 95.4641 84.4205 95.4641H88.049C88.5328 95.4641 89.0166 94.9808 89.0166 94.4975V83.3811Z" fill="#DADADA"/>
<path d="M94.0965 40.8403H71.3583V35.5237C71.3583 33.3488 69.665 31.6571 67.4879 31.6571H51.2809C49.1038 31.6571 47.4105 33.3488 47.4105 35.5237V40.8403H24.6722C19.3505 40.8403 15.2383 44.9485 15.2383 50.2651V85.306C15.2383 90.6226 19.3505 94.7308 24.6722 94.7308H94.3384C99.6602 94.7308 103.772 90.6226 103.772 85.306V50.2651C103.531 45.1902 99.4183 40.8403 94.0965 40.8403ZM51.039 35.5237C51.039 35.282 51.2809 35.282 51.2809 35.282H67.4879C67.7298 35.282 67.7298 35.5237 67.7298 35.5237V40.8403H51.039V35.5237V35.5237Z" fill="#EA4A49"/>
<path d="M39.6694 40.8406H31.9287V94.7309H39.6694V40.8406Z" fill="#FDFDFD"/>
<path d="M86.8393 40.8406H79.0986V94.7309H86.8393V40.8406Z" fill="#FDFDFD"/>
<path d="M40.8794 56.7904H30.7197V47.3656H40.8794V56.7904ZM33.1387 54.3738H38.4604V49.7822H33.1387V54.3738Z" fill="#231F20"/>
<path d="M88.0493 56.7904H77.8896V47.3656H88.0493V56.7904ZM80.3086 54.3738H85.6303V49.7822H80.3086V54.3738Z" fill="#231F20"/>
</svg>
