<svg width="204" height="97" viewBox="0 0 204 97" fill="none" xmlns="http://www.w3.org/2000/svg">
<path d="M87.8027 2.43204C87.8027 3.64036 88.7703 4.60704 89.9798 4.60704H110.299C111.509 4.60704 112.476 3.64036 112.476 2.43204C112.476 1.22372 111.509 0.25708 110.299 0.25708H89.9798C88.7703 0.25708 87.8027 1.22372 87.8027 2.43204Z" fill="#CBC2D7"/>
<path d="M8.45898 81.2137C8.45898 81.4554 8.7009 81.697 8.7009 81.9387C8.7009 82.1803 8.94277 82.1803 8.94277 82.1803C8.94277 82.1803 8.94278 82.422 9.18468 82.422C9.18468 82.6637 9.42659 82.6637 9.42659 82.9053C9.66849 83.3886 10.1523 83.6303 10.6361 84.1136C10.878 84.3553 11.1198 84.3553 11.3617 84.5969H11.6036C11.8455 84.8386 12.0874 84.8386 12.3293 84.8386L14.9902 85.5636L15.7159 85.8052H15.9578H22.0052H22.489H27.085H36.519H41.115H41.5988H47.8881H49.8233H53.4518L109.088 85.5636H151.904H154.806H161.096H161.579H165.934H176.093H180.447H180.931H187.221L188.43 85.0802L189.398 84.8386L195.203 83.147C195.445 83.147 195.687 82.9053 195.687 82.9053C195.929 82.6637 196.171 82.6637 196.413 82.422C196.654 82.422 196.654 82.1803 196.896 82.1803C197.138 82.1803 197.138 81.9387 197.138 81.9387L197.38 81.697C197.622 81.4553 197.622 81.2137 197.864 80.7304C198.106 80.0054 198.348 79.2804 198.348 78.7971V77.1055V74.9305V72.7555V71.3056V67.9223V66.9557V62.3641C198.348 61.1558 198.348 59.7058 198.106 58.4975C198.106 58.2559 198.106 57.7725 197.864 57.5309C197.622 56.8059 197.38 56.0809 197.138 55.3559C196.654 54.3893 195.929 53.906 194.719 53.4226C194.719 53.4226 168.594 45.2062 163.273 43.2729C162.789 43.0312 162.305 43.0312 162.305 42.7895L160.612 42.3062H150.21C148.033 42.3062 146.098 40.3729 146.098 38.198V15.2402C146.098 13.7902 147.308 12.5819 148.759 12.5819H151.178L151.904 12.0986C151.662 11.1319 151.42 10.8902 150.936 10.1653C147.066 3.39875 141.018 3.39878 125.779 3.39878H112.474L87.801 3.64042L30.9554 3.1571C27.8107 3.1571 22.9728 4.84873 20.5538 9.19864C20.3119 9.68196 20.07 10.1653 20.07 10.6486L10.1523 40.6146C9.42656 42.7895 9.18467 44.9645 8.94277 47.1394V48.3477V54.3893V58.7392V62.8474V68.889V75.6555V79.2804L8.45898 81.2137Z" fill="#CBC2D7"/>
<path d="M13.2969 79.2806C13.2969 80.2473 13.2969 81.2139 13.5388 81.9389C13.7807 82.9056 14.0226 84.1138 14.2645 85.0805H15.2321L48.6138 84.8389L49.8233 84.5972L50.7908 84.3555C51.2746 82.9056 51.5165 81.4556 51.5165 79.7639C51.5165 79.5223 51.5165 79.5223 51.5165 79.2806C51.5165 68.8891 43.0502 60.1893 32.4067 60.1893C21.7633 60.431 13.2969 68.8891 13.2969 79.2806Z" fill="#A69FB0"/>
<path d="M151.662 79.2806C151.662 80.2473 151.662 81.2139 151.904 81.9389C152.146 82.9056 152.388 84.1138 152.63 85.0805H153.597L186.979 84.8389L188.188 84.5972L189.156 84.3555C189.64 82.9056 189.882 81.4556 189.882 79.7639C189.882 79.5223 189.882 79.5223 189.882 79.2806C189.882 68.8891 181.415 60.1893 170.772 60.1893C160.129 60.431 151.662 68.8891 151.662 79.2806Z" fill="#A69FB0"/>
<path d="M7.97461 79.2804C8.21651 81.9387 9.90977 84.1136 12.5706 84.8386L15.2315 85.5636L16.1991 85.8052L49.5808 85.5636L152.629 85.0802H153.596L186.978 84.8386L188.188 84.5969L189.155 84.3553L194.961 82.6636C196.17 82.1803 197.38 81.2137 197.863 80.247V79.5221L189.881 80.0054L153.838 82.1803H151.903H49.5808L7.97461 79.2804Z" fill="#A69FB0"/>
<path d="M198.349 81.2138C198.349 82.6637 199.558 83.872 201.009 83.872C204.638 83.872 204.88 74.689 201.009 74.689C199.558 74.689 198.349 75.8972 198.349 77.3472V81.2138Z" fill="#A59DAF"/>
<path d="M191.334 79.2801C191.334 80.9717 192.785 82.4217 194.479 82.4217H199.558C201.252 82.4217 202.703 80.9717 202.703 79.2801C202.703 77.5885 201.252 76.1385 199.558 76.1385H194.479C192.785 76.3802 191.334 77.5885 191.334 79.2801Z" fill="#E2D8F1"/>
<path d="M119.248 11.3738H138.116C140.777 11.3738 142.954 13.5487 142.954 16.207V74.2057C142.954 77.5889 140.293 80.2472 136.906 80.2472H136.665C124.57 80.2472 114.894 70.5807 114.894 58.4977V16.4487C114.41 13.5487 116.587 11.3738 119.248 11.3738Z" fill="#A69FB0"/>
<path d="M6.52464 80.7306C6.52464 82.1806 5.31515 83.3888 3.62186 83.3888C-0.490422 83.3888 -0.732321 74.2057 3.62186 74.2057C5.07325 74.2057 6.52464 75.414 6.52464 76.864V80.7306Z" fill="#A59DAF"/>
<path d="M14.0235 78.7974C14.0235 80.489 12.5721 81.939 10.8788 81.939H5.79897C4.10569 81.939 2.6543 80.489 2.6543 78.7974C2.6543 77.1057 4.10569 75.6558 5.79897 75.6558H10.8788C12.814 75.8974 14.0235 77.1057 14.0235 78.7974Z" fill="#E2D8F1"/>
<path d="M120.216 48.5898H124.086C125.054 48.5898 125.779 47.8648 125.779 46.8981C125.779 45.9314 125.054 45.2064 124.086 45.2064H120.216C119.248 45.2064 118.522 45.9314 118.522 46.8981C118.522 47.8648 119.248 48.5898 120.216 48.5898Z" fill="#CBC2D7"/>
<path d="M119.732 46.8983C119.732 47.14 121.426 47.6233 123.603 47.6233C125.78 47.6233 127.473 47.3817 127.473 46.8983C127.473 46.6567 125.78 46.1733 123.603 46.1733C121.426 46.1733 119.732 46.415 119.732 46.8983Z" fill="#EADFF8"/>
<path d="M20.5537 9.44042H150.694C146.824 2.67384 140.776 2.67383 125.537 2.67383L30.9553 3.15715C27.8106 3.15715 22.7308 4.84881 20.5537 9.44042Z" fill="#A69FB0"/>
<path d="M145.857 14.5153V37.4731C145.857 39.6481 147.793 41.5814 149.97 41.5814H160.371C160.371 41.0981 160.129 40.6148 160.129 40.1314C157.952 30.9483 155.291 22.0068 151.663 13.307C151.421 12.8237 151.179 12.3404 150.937 11.8571H148.518C147.067 11.8571 145.857 13.0653 145.857 14.5153Z" fill="#DDD3EA"/>
<path d="M148.519 11.1317H151.663C151.663 11.1317 151.421 11.615 151.18 12.34H148.519C147.309 12.34 146.342 13.3067 146.342 14.515V37.4728C146.342 39.4061 148.035 41.0977 149.97 41.0977H160.13C160.13 41.0977 161.581 42.0643 162.065 42.306H161.097H149.97C147.309 42.306 145.374 40.1311 145.374 37.7144V14.7566C145.132 12.8233 146.584 11.1317 148.519 11.1317Z" fill="#A69FB0"/>
<path d="M191.333 61.1558C191.333 63.8141 193.51 65.7474 195.929 65.7474H198.106V61.1558C198.106 59.9475 198.106 58.4976 197.864 57.2893C197.864 57.0476 197.864 56.5643 197.622 56.3226H195.929C193.268 56.5643 191.333 58.7392 191.333 61.1558Z" fill="#A69FB0"/>
<path d="M195.93 57.5308H197.623C198.107 57.5308 198.591 58.0141 198.833 58.4974C199.316 60.4307 199.316 62.364 198.833 64.0557C198.591 64.539 198.107 65.0224 197.623 65.0224H195.93C193.753 65.0224 192.059 63.089 192.301 60.914C192.301 58.9807 193.995 57.5308 195.93 57.5308Z" fill="#D0C7DD"/>
<path d="M8.70312 62.8475H12.5734C14.9924 62.8475 16.9276 60.9142 16.9276 58.4976C16.9276 56.081 14.9924 54.1477 12.5734 54.1477H8.945V58.4976L8.70312 62.8475Z" fill="#CCC3D9"/>
<path d="M120.457 39.648H136.906C138.841 39.648 140.292 38.1981 140.292 36.2648V17.1736C140.292 15.2403 138.841 13.7903 136.906 13.7903H120.457C118.521 13.7903 117.07 15.2403 117.07 17.1736V36.2648C116.828 38.1981 118.521 39.648 120.457 39.648Z" fill="#DDD3EA"/>
<path d="M168.112 49.7974L196.898 54.6306C196.414 53.664 195.689 53.1807 194.479 52.6974C194.479 52.6974 168.354 44.4809 163.033 42.5476C162.307 45.9309 164.484 49.3141 168.112 49.7974Z" fill="#A69FB0"/>
<path d="M197.38 73.9635C197.38 74.2052 197.622 74.4468 197.863 74.4468C198.105 74.4468 198.347 74.2052 198.347 73.9635V68.647C198.347 68.4054 198.105 68.1637 197.863 68.1637C197.622 68.1637 197.38 68.4054 197.38 68.647V73.9635Z" fill="#A69FB0"/>
<path d="M195.688 73.9635C195.688 74.2052 195.93 74.4468 196.172 74.4468C196.414 74.4468 196.655 74.2052 196.655 73.9635V68.647C196.655 68.4054 196.414 68.1637 196.172 68.1637C195.93 68.1637 195.688 68.4054 195.688 68.647V73.9635Z" fill="#A69FB0"/>
<path d="M194.236 73.9635C194.236 74.2052 194.478 74.4468 194.72 74.4468C194.961 74.4468 195.203 74.2052 195.203 73.9635V68.647C195.203 68.4054 194.961 68.1637 194.72 68.1637C194.478 68.1637 194.236 68.4054 194.236 68.647V73.9635Z" fill="#A69FB0"/>
<path d="M24.4263 41.3393H102.801C104.736 41.3393 106.429 39.6477 106.429 37.7144V15.2399C106.429 13.3066 104.736 11.615 102.801 11.615H30.2318C28.5385 11.615 27.0871 12.5816 26.6033 14.2733L20.0721 35.7811C19.5883 38.4394 21.5235 41.3393 24.4263 41.3393Z" fill="#C0B7CC"/>
<path d="M30.2295 17.4149C30.2295 18.1399 30.9552 18.8649 31.6809 18.8649H100.621C101.347 18.8649 102.073 18.1399 102.073 17.4149C102.073 16.6899 101.347 15.965 100.621 15.965H31.6809C30.9552 15.965 30.2295 16.6899 30.2295 17.4149Z" fill="#CBC2D7"/>
<path d="M28.5361 23.4563C28.5361 24.1812 29.2618 24.9062 29.9875 24.9062H100.621C101.347 24.9062 102.073 24.1812 102.073 23.4563C102.073 22.7313 101.347 22.0063 100.621 22.0063H29.9875C29.2618 22.0063 28.5361 22.7313 28.5361 23.4563Z" fill="#CBC2D7"/>
<path d="M26.8428 29.498C26.8428 30.223 27.5684 30.948 28.2941 30.948H100.621C101.347 30.948 102.073 30.223 102.073 29.498C102.073 28.7731 101.347 28.0481 100.621 28.0481H28.2941C27.5684 28.0481 26.8428 28.5314 26.8428 29.498Z" fill="#CBC2D7"/>
<path d="M25.1494 35.2977C25.1494 36.0226 25.8751 36.7476 26.6008 36.7476H100.621C101.347 36.7476 102.073 36.0226 102.073 35.2977C102.073 34.5727 101.347 33.8477 100.621 33.8477H26.6008C25.8751 34.0893 25.1494 34.5727 25.1494 35.2977Z" fill="#CBC2D7"/>
<g opacity="0.65">
<path opacity="0.65" d="M117.797 16.4483L127.715 38.6811H136.181L125.538 14.515H120.458C119.248 14.515 118.281 15.4817 117.797 16.4483Z" fill="white"/>
<path opacity="0.65" d="M126.747 14.515L137.391 38.6811C138.358 38.4395 139.084 37.7145 139.326 36.7478L129.65 14.515H126.747Z" fill="white"/>
</g>
<g opacity="0.65">
<path opacity="0.65" d="M146.583 14.9984V20.7983L155.049 40.1312H159.645C157.468 30.9481 154.807 22.0066 151.179 13.3068H148.276C147.551 13.3068 146.583 14.0317 146.583 14.9984Z" fill="white"/>
</g>
<path opacity="0.1" d="M3.62042 74.2052C4.8299 74.2052 5.7975 74.9302 6.28129 75.6552H8.70026V68.8887V63.3304L198.347 73.4802V73.9636C198.347 74.2052 198.105 74.4469 198.105 74.4469V76.3802H198.589C199.073 75.4135 199.798 74.9302 201.008 74.9302C204.878 74.9302 204.636 84.1133 201.008 84.1133C200.04 84.1133 199.073 83.3883 198.589 82.6633H195.202C194.961 82.6633 194.719 82.905 194.719 82.905L189.397 84.5966L188.913 84.8383H188.671L187.946 85.0799L186.736 85.3216H182.382H176.818H175.851H168.352H159.886H154.806H151.903H149.968L49.8227 85.8049H49.5808H43.5333H41.3563H40.8725H36.2764H26.8425H22.2464H21.7627H18.618H15.7152L14.9895 85.5633H14.7477L12.0868 84.8383C11.8449 84.8383 11.3611 84.5966 11.1192 84.355C9.90974 83.8717 9.18404 83.1467 8.45835 82.18C8.45835 82.18 8.45837 81.9384 8.21647 81.9384H5.5556C5.0718 82.905 4.1042 83.3883 2.89472 83.3883C-0.249933 83.3883 -0.491823 74.2052 3.62042 74.2052Z" fill="#8E8796"/>
<path d="M160.371 80.2467C160.371 85.8049 164.967 90.3965 170.531 90.3965C176.094 90.3965 180.69 85.8049 180.69 80.2467C180.69 74.6885 176.094 70.0969 170.531 70.0969C164.967 70.0969 160.371 74.6885 160.371 80.2467Z" fill="#E1D7EF"/>
<path d="M154.566 80.2468C154.566 89.1883 161.823 96.1965 170.532 96.1965C179.482 96.1965 186.497 88.9466 186.497 80.2468C186.497 71.3054 179.24 64.2972 170.532 64.2972C161.823 64.2972 154.566 71.3054 154.566 80.2468ZM160.856 80.2468C160.856 74.6886 165.21 70.3388 170.773 70.3388C176.337 70.3388 180.691 74.6886 180.691 80.2468C180.691 85.805 176.337 90.155 170.773 90.155C165.21 90.155 160.856 85.805 160.856 80.2468Z" fill="#9891A1"/>
<path d="M163.272 80.247C163.272 84.3552 166.659 87.7385 170.771 87.7385C174.884 87.7385 178.27 84.3552 178.27 80.247C178.27 76.1387 174.884 72.7555 170.771 72.7555C166.659 72.7555 163.272 76.1387 163.272 80.247Z" fill="white"/>
<path d="M166.176 80.2473C166.176 82.6639 168.111 84.8389 170.772 84.8389C173.191 84.8389 175.368 82.9056 175.368 80.2473C175.368 77.8307 173.433 75.6558 170.772 75.6558C168.111 75.6558 166.176 77.8307 166.176 80.2473Z" fill="#E1D7EF"/>
<path opacity="0.5" d="M174.642 72.0304C176.093 72.7554 177.545 73.9637 178.512 75.4136L170.771 80.0052L174.642 72.0304Z" fill="white"/>
<path opacity="0.5" d="M170.772 80.2471L166.902 88.4636C165.208 87.7386 163.999 86.5303 163.031 85.0803L170.772 80.2471Z" fill="white"/>
<path d="M22.2461 80.2468C22.2461 85.805 26.8422 90.3966 32.4058 90.3966C37.9694 90.3966 42.5654 85.805 42.5654 80.2468C42.5654 74.6886 37.9694 70.097 32.4058 70.097C26.6003 70.097 22.2461 74.6886 22.2461 80.2468Z" fill="#E1D7EF"/>
<path d="M16.4414 80.2472C16.4414 89.1887 23.6983 96.1968 32.4066 96.1968C41.3568 96.1968 48.3718 88.947 48.3718 80.2472C48.3718 71.3058 41.1149 64.2976 32.4066 64.2976C23.4564 64.2976 16.4414 71.3058 16.4414 80.2472ZM22.4888 80.2472C22.4888 74.689 26.843 70.3391 32.4066 70.3391C37.9702 70.3391 42.3243 74.689 42.3243 80.2472C42.3243 85.8054 37.9702 90.1553 32.4066 90.1553C26.843 90.1553 22.4888 85.8054 22.4888 80.2472Z" fill="#9891A1"/>
<path d="M24.9062 80.2471C24.9062 84.3554 28.2928 87.7387 32.4051 87.7387C36.5173 87.7387 39.9038 84.3554 39.9038 80.2471C39.9038 76.1389 36.5173 72.7556 32.4051 72.7556C28.2928 72.7556 24.9062 76.1389 24.9062 80.2471Z" fill="white"/>
<path d="M27.8105 80.2474C27.8105 82.6641 29.7457 84.839 32.4066 84.839C34.8256 84.839 37.0027 82.9057 37.0027 80.2474C37.0027 77.8308 35.0675 75.6559 32.4066 75.6559C29.9876 75.6559 27.8105 77.8308 27.8105 80.2474Z" fill="#E1D7EF"/>
<path opacity="0.5" d="M36.2746 72.0305C37.726 72.7555 39.1774 73.9638 40.145 75.4138L32.4043 80.0054L36.2746 72.0305Z" fill="white"/>
<path opacity="0.5" d="M32.4067 80.2472L28.5364 88.4637C26.8431 87.7388 25.6336 86.5304 24.666 85.0804L32.4067 80.2472Z" fill="white"/>
<path d="M147.793 38.923C147.793 39.4063 148.277 39.8896 148.761 39.8896H151.905C152.389 39.8896 152.873 39.4063 152.873 38.923V27.0815C152.873 26.3566 152.147 25.6316 151.421 25.6316H149.244C148.519 25.6316 148.035 26.1149 148.035 26.8399V38.923H147.793Z" fill="#A69FB0"/>
<path d="M156.501 45.206C156.743 45.206 156.743 45.206 156.985 45.206C157.469 44.9644 157.468 44.4811 157.468 43.9977L151.663 32.8814C151.421 32.3981 150.937 32.3981 150.454 32.3981C149.97 32.6397 149.97 33.1231 149.97 33.6064L155.775 44.7227C156.017 45.206 156.259 45.206 156.501 45.206Z" fill="#9891A1"/>
</svg>
