<svg width="247" height="66" viewBox="0 0 247 66" fill="none" xmlns="http://www.w3.org/2000/svg">
<path d="M3.88143 40.1483H4.36523C4.84903 40.1483 5.33286 39.4232 5.33286 38.4566L6.05853 32.6567C6.05853 31.6901 5.81666 30.7235 5.33286 30.4818H5.09094C4.60714 30.4818 4.12335 31.2068 4.12335 32.1734L3.39763 37.9733C3.15573 39.1816 3.39763 40.1483 3.88143 40.1483Z" fill="#C1B8CD"/>
<path d="M241.906 42.0813L243.6 41.8397C244.567 41.8397 245.535 40.873 245.535 39.6647L246.261 31.6899C246.261 30.4816 245.777 29.515 244.567 29.2733L243.6 29.0316L241.906 42.0813Z" fill="#D0C7DD"/>
<path d="M241.182 42.5641L243.601 42.3225L245.052 28.7894L242.149 28.5477L241.182 42.5641Z" fill="#9C95A6"/>
<path d="M241.665 50.5393H244.326C245.052 50.5393 245.536 50.056 245.777 49.331L246.503 44.9811C246.745 44.2561 246.019 43.2894 245.052 43.2894H241.423L240.698 49.0894C240.456 49.8143 240.94 50.5393 241.665 50.5393Z" fill="#E1D7EF"/>
<path d="M12.5887 51.2643L38.4715 52.9559H39.9229L43.0676 53.1976H221.103L236.101 51.2643C239.246 50.781 241.907 48.3644 242.39 44.9811L244.084 29.0315C244.567 24.9232 241.665 24.1982 237.552 23.9566L170.063 20.5733C167.644 20.3317 165.225 19.6067 163.048 17.9151L143.213 2.69044C141.761 1.72379 140.31 0.998779 138.617 0.998779H80.3197C74.7561 0.998779 69.1924 3.17374 65.0802 7.28198L56.372 15.7401C55.4044 16.7068 53.953 17.4318 52.5016 17.6734L9.20214 26.6149C7.02507 27.0982 5.57367 28.7898 5.33178 30.9648L4.12229 40.8729C3.6385 46.4311 7.26695 51.0226 12.5887 51.2643Z" fill="#A69FB0"/>
<path opacity="0.2" d="M173.693 23.2312L237.07 26.3728C238.522 26.3728 242.392 26.6145 241.908 29.7561L240.215 45.2224C241.182 27.5811 239.247 28.5478 231.749 28.0644L173.693 23.2312Z" fill="#EDE3FC"/>
<path opacity="0.2" d="M6.05859 41.598L7.26808 31.6899C7.50997 30.4816 8.23566 29.5149 9.68704 29.0316L52.5028 19.6068C52.7446 19.6068 53.2284 19.8485 53.2284 19.8485C11.3803 29.7566 9.44514 29.0316 6.05859 41.598Z" fill="#EDE3FC"/>
<path d="M138.134 3.65686C139.343 3.65686 140.553 4.14018 141.52 4.86517L161.356 20.0898C162.324 20.8148 163.049 21.2981 164.017 21.7815L166.678 32.6562L164.017 51.7475H111.283L113.218 31.9312L111.283 3.89854H138.134V3.65686Z" fill="#9C95A6"/>
<path d="M113.703 5.59033H138.377C139.102 5.59033 140.07 5.832 140.554 6.31532L160.389 21.54C160.631 21.54 160.631 21.7817 160.873 21.7817H114.913L113.703 5.59033Z" fill="#DDD3EA"/>
<path d="M74.2737 6.55679C75.4832 4.6235 77.6602 3.65686 80.0792 3.65686H109.832L111.768 31.6896L109.832 51.5058H78.6278C77.9021 43.0477 71.8547 36.0395 63.8721 33.3812V23.9564C63.8721 22.2648 64.3559 20.8148 65.3235 19.6065L74.2737 6.55679Z" fill="#9C95A6"/>
<path d="M75.7234 7.76528C76.691 6.3153 78.1424 5.59033 79.8356 5.59033H107.654L108.863 22.0234H65.8057L75.7234 7.76528Z" fill="#DDD3EA"/>
<path d="M124.828 24.6814H116.12V27.5813H124.828V24.6814Z" fill="#E1D7EF"/>
<path d="M74.514 24.6814H65.8057V27.5813H74.514V24.6814Z" fill="#E1D7EF"/>
<path d="M4.12261 41.356V42.5643H9.44427C12.1051 42.5643 14.2822 44.7393 14.2822 47.3976L2.67122 46.9142C1.46174 46.9142 0.0103597 45.7059 0.252256 44.4976C0.252256 44.2559 0.252256 44.0143 0.252256 43.7726C0.494152 42.3226 1.46175 41.356 2.91313 41.356H4.12261Z" fill="#E1D7EF"/>
<path d="M236.586 49.3311H243.601C244.327 49.3311 244.81 48.8478 244.81 48.3644L245.294 46.4311C245.536 45.7061 244.81 44.7395 244.085 44.7395H237.07C236.344 44.7395 235.86 45.2228 235.86 45.7061L235.377 47.6394C235.135 48.3644 235.86 49.3311 236.586 49.3311Z" fill="#E1D7EF"/>
<path d="M152.89 22.7484L157.002 24.6817L157.244 22.5068L153.615 19.1235L152.89 22.7484Z" fill="#A69FB0"/>
<path d="M151.678 16.4652H151.92C152.888 16.7069 153.855 17.4319 154.097 18.3985L154.581 20.5734C155.065 22.7484 153.13 24.9233 150.952 24.6817H150.469L151.678 16.4652Z" fill="#A69FB0"/>
<path d="M181.434 53.4395H216.993L216.025 47.8813C215.299 44.2564 213.122 41.5981 210.219 39.9064C208.768 39.1814 206.833 38.6981 205.14 38.6981H194.496C192.077 38.6981 189.9 39.4231 187.965 40.6314C185.304 42.3231 183.127 45.223 182.643 48.6063L181.434 53.4395Z" fill="#A49DAE"/>
<path d="M38.2305 53.1978H39.6818H40.8913L42.8265 53.4395H73.5473L72.5797 47.8813C71.854 44.498 69.677 41.5981 66.7742 39.9064C65.3228 39.1814 63.3876 38.6981 61.4525 38.6981H50.809C48.3901 38.6981 46.2131 39.4231 44.2779 40.6314C41.3751 42.3231 39.4399 45.223 38.9561 48.8479L38.2305 53.1978Z" fill="#A49DAE"/>
<g opacity="0.75">
<path opacity="0.75" d="M130.391 6.31604L142.002 21.5407H132.81L121.199 6.31604H130.391Z" fill="white"/>
<path opacity="0.75" d="M134.502 6.31567L145.871 21.5403H142.969L131.6 6.31567H134.502Z" fill="white"/>
</g>
<g opacity="0.75">
<path opacity="0.75" d="M90.4801 6.31604L101.849 21.5407H92.899L81.2881 6.31604H90.4801Z" fill="white"/>
<path opacity="0.75" d="M94.5948 6.31567L105.964 21.5403H103.061L91.4502 6.31567H94.5948Z" fill="white"/>
</g>
<path opacity="0.2" d="M0.250977 43.7728C0.250977 44.0145 0.250977 44.2561 0.250977 44.4978C0.250977 45.7061 1.46046 46.9144 2.66994 46.9144L5.33082 47.156C6.7822 49.5727 9.44305 51.2643 12.3458 51.2643L38.2288 52.9559H39.6801L42.8248 53.1976H73.5456H181.19H216.749H220.861L235.858 51.2643C237.552 51.0226 239.245 50.2976 240.213 48.8477H240.454C240.454 49.5727 240.938 50.056 241.422 50.056H244.083C244.808 50.056 245.292 49.5727 245.534 48.8477L246.26 44.4978C246.26 44.2561 246.26 44.2561 246.26 44.0144L3.63752 33.3813L3.15373 37.4896C2.91183 38.6979 3.39563 39.6645 3.87943 39.6645H4.12134V40.6312H3.15373C1.70235 41.3562 0.492873 42.3228 0.250977 43.7728Z" fill="#8E8796"/>
<path d="M189.415 50.539C189.415 55.8556 193.769 60.2055 199.091 60.2055C204.413 60.2055 208.767 55.8556 208.767 50.539C208.767 45.2225 204.413 40.8726 199.091 40.8726C193.769 40.8726 189.415 45.2225 189.415 50.539Z" fill="#E1D7EF"/>
<path d="M183.852 50.5395C183.852 51.5062 183.852 52.4728 184.093 53.4395C185.545 60.4477 191.592 65.7642 199.091 65.7642C206.59 65.7642 212.637 60.4477 214.089 53.4395C214.331 52.4728 214.331 51.5062 214.331 50.5395C214.331 46.4313 212.637 42.5647 209.976 39.9064C208.525 39.1814 206.59 38.6981 204.897 38.6981H194.253C191.834 38.6981 189.657 39.4231 187.722 40.6314C185.303 43.2897 183.852 46.9146 183.852 50.5395ZM199.091 59.9643C194.979 59.9643 191.35 57.3061 190.141 53.4395C189.899 52.4728 189.657 51.5062 189.657 50.5395C189.657 45.4646 193.769 41.1147 199.091 41.1147C204.171 41.1147 208.525 45.223 208.525 50.5395C208.525 51.5062 208.283 52.4728 208.041 53.4395C206.832 57.3061 203.445 59.9643 199.091 59.9643Z" fill="#9891A1"/>
<path d="M192.076 50.5393C192.076 54.4059 195.221 57.5475 199.091 57.5475C202.962 57.5475 206.106 54.4059 206.106 50.5393C206.106 46.6727 202.962 43.5311 199.091 43.5311C195.221 43.5311 192.076 46.6727 192.076 50.5393Z" fill="white"/>
<path d="M194.977 50.539C194.977 52.9556 196.912 54.889 199.331 54.889C201.75 54.889 203.685 52.9556 203.685 50.539C203.685 48.1224 201.75 46.1891 199.331 46.1891C196.912 46.4308 194.977 48.364 194.977 50.539Z" fill="#E1D7EF"/>
<path opacity="0.5" d="M202.96 42.8058C204.412 43.5308 205.621 44.7391 206.589 45.9474L199.332 50.2973L202.96 42.8058Z" fill="white"/>
<path opacity="0.5" d="M199.09 50.5393L195.219 58.2725C193.768 57.5475 192.558 56.3392 191.591 54.8892L199.09 50.5393Z" fill="white"/>
<path d="M46.2119 50.539C46.2119 55.8556 50.566 60.2055 55.8878 60.2055C61.2095 60.2055 65.5636 55.8556 65.5636 50.539C65.5636 45.2225 61.2095 40.8726 55.8878 40.8726C50.566 40.8726 46.2119 45.2225 46.2119 50.539Z" fill="#E1D7EF"/>
<path d="M40.8896 50.5395C40.8896 51.5062 40.8897 52.4728 41.1316 53.1978C42.341 60.206 48.6304 65.7642 56.1291 65.7642C63.6279 65.7642 69.6752 60.4477 71.1266 53.4395C71.3685 52.4728 71.3685 51.5062 71.3685 50.5395C71.3685 46.4313 69.6753 42.5647 67.0144 39.9064C65.5631 39.1814 63.6279 38.6981 61.6927 38.6981H51.0493C48.6303 38.6981 46.4532 39.4231 44.5181 40.6314C42.0991 43.2897 40.8896 46.6729 40.8896 50.5395ZM56.1291 59.9643C52.0169 59.9643 48.3884 57.3061 47.179 53.4395C46.9371 52.4728 46.6952 51.5062 46.6952 50.5395C46.6952 45.4646 50.8074 41.1147 56.1291 41.1147C61.2089 41.1147 65.563 45.223 65.563 50.5395C65.563 51.5062 65.3211 52.4728 65.0792 53.4395C63.8697 57.3061 60.2413 59.9643 56.1291 59.9643Z" fill="#9891A1"/>
<path d="M48.873 50.5393C48.873 54.4059 52.0177 57.5475 55.888 57.5475C59.7583 57.5475 62.9029 54.4059 62.9029 50.5393C62.9029 46.6727 59.7583 43.5311 55.888 43.5311C52.0177 43.5311 48.873 46.6727 48.873 50.5393Z" fill="white"/>
<path d="M51.7754 50.539C51.7754 52.9556 53.7106 54.889 56.1296 54.889C58.5486 54.889 60.4837 52.9556 60.4837 50.539C60.4837 48.1224 58.5486 46.1891 56.1296 46.1891C53.7106 46.4308 51.7754 48.364 51.7754 50.539Z" fill="#E1D7EF"/>
<path opacity="0.5" d="M59.7573 42.8058C61.2087 43.5308 62.4182 44.7391 63.3857 45.9474L56.1289 50.2973L59.7573 42.8058Z" fill="white"/>
<path opacity="0.5" d="M56.1296 50.5393L52.2593 58.2725C50.8079 57.5475 49.5984 56.3392 48.6309 54.8892L56.1296 50.5393Z" fill="white"/>
</svg>
