<svg width="1400" height="630" viewBox="0 0 1400 630" fill="none" xmlns="http://www.w3.org/2000/svg">
<path d="M1251.73 611.15C1251.73 614.291 1249.31 616.708 1246.17 616.708H1222.46C1219.32 616.708 1216.9 614.291 1216.9 611.15C1216.9 608.008 1219.32 605.591 1222.46 605.591H1246.17C1249.07 605.591 1251.73 608.008 1251.73 611.15Z" fill="#EADFF8"/>
<path d="M1466.29 325.265H-77.0088V410.571H1466.29V325.265Z" fill="#EADFF8"/>
<path d="M1490.15 358.384V195.504H1478.78V64.0402H1427.74V110.681H1424.35V116.239H1420.72V122.039H1415.16L1403.31 132.914V148.138H1395.81V41.8074H1350.09V157.805L1318.4 158.046V129.772H1304.13V124.456H1302.68V71.7734H1263.01V71.0484H1261.8V54.1321L1259.38 51.4739H1218.01L1215.6 54.1321V82.4065H1214.39V115.272H1215.6V145.48L1211.73 142.58L1196.24 131.705L1191.89 134.847V132.672L1189.95 134.122V136.055L1182.7 141.13L1175.44 136.055V134.122L1173.51 132.672V134.847L1169.39 131.705L1153.67 142.58L1149.8 145.48V86.0314L1147.62 83.3732H1106.02L1103.84 86.0314V102.948H1102.63V103.914H1062.96V124.456H1061.51V129.772H1047.24V159.255L1030.06 149.105L1015.31 157.805V80.7149H969.587V148.138H962.088V132.914L950.235 122.039H944.671V116.239H941.043V110.681H937.898V95.4562H915.402V134.605H877.908V194.537H843.559V181.246H829.77V194.537H820.578V170.13H795.179V210.004H768.329V122.522H739.785V195.021H715.111V166.263H700.114V94.4896H653.428V195.021H630.448V155.388L597.792 196.471V225.953H571.183V148.138H530.786V106.814H501.275V149.588H485.552V52.4405H444.429V144.997H405V185.596H385.89V213.629H355.653V126.389H318.643V163.605H301.227V24.8911H268.57V66.9402L251.396 84.3398V139.439H222.852V163.605H174.473V52.4405H136.253V116.964H98.5172V74.4317H73.6019V0H26.674V163.605H1.27482V73.9484H-49.7653V199.612H-95V358.384H1490.15Z" fill="#F4EBFF"/>
<path d="M1470.07 197.437L1467.65 199.129V235.137L1463.78 233.445L1448.3 226.92L1443.94 228.853V227.403L1442.01 228.37V229.578L1434.75 232.72L1427.49 229.578V228.37L1425.56 227.403V228.853L1421.2 226.92L1405.72 233.445L1401.85 235.137V216.77H1403.06V196.954H1401.85V179.555L1399.43 177.863H1358.07L1355.65 179.555V189.946H1354.44V190.429H1314.77V222.329H1313.32V225.47H1299.05V242.628L1267.12 242.386V152.005H1221.4V236.345H1213.9V227.162L1202.05 220.637H1196.72V217.012H1193.1V213.87H1189.71V185.596H1138.67V265.103H1120.77V239.97L1121.74 239.487C1121.25 239.245 1120.77 239.003 1120.29 238.52C1119.56 238.278 1119.08 237.795 1118.59 237.553C1114.48 235.62 1109.64 234.412 1104.56 234.17C1104.56 234.17 1104.32 234.17 1104.08 234.17C1103.84 234.17 1103.84 234.17 1103.59 234.17C1102.63 234.17 1101.66 234.17 1100.69 234.17C1092.47 234.17 1084.97 236.103 1079.65 239.245H1080.13V240.695V264.861L1071.42 269.453L1069.73 229.82H1061.99V220.154H1058.36V218.22H1054.97V217.495H1026.91V218.22H1023.53V220.154H1020.14V251.328H989.662V250.603H987.726V251.328H978.776L972.487 255.92V191.396H938.863V242.386H907.417L905.482 243.353V267.761C889.758 261.719 872.826 260.753 854.683 267.761C854.683 267.761 854.683 267.761 854.683 267.519C854.683 241.661 854.683 231.512 854.683 230.303L852.748 229.337H820.576L818.641 230.303V237.312C786.952 237.553 792.516 237.553 786.952 237.553V259.061H785.985V261.236H774.858V272.836H750.184V211.937H714.867V268.969H709.062V262.686L699.87 258.336H695.515V255.92H692.613V253.745H689.952V234.653H650.281V288.302H636.493V271.386L637.218 271.144C636.735 270.902 636.493 270.661 636.009 270.661C635.525 270.419 635.041 270.177 634.558 270.177C631.413 268.969 627.784 268.003 623.672 267.761H623.43H623.188C622.463 267.761 621.737 267.761 620.769 267.761C614.48 267.761 608.675 268.969 604.562 271.144H604.804V272.111V288.302L598.031 291.444L596.822 264.861H590.774V258.336H587.871V257.128H585.211V256.644H563.44V257.128H560.779V258.336H557.876V279.361H534.17V278.877H532.719V279.361H526.672L521.834 282.261V238.762H498.612V197.921H478.776L476.357 199.371V230.303H411.287V230.062C411.287 196.954 411.287 184.388 411.287 182.454L408.868 181.004H367.988L365.569 182.454V191.396H364.601V191.879H325.414V219.187H323.962V221.845H309.932V236.587H278.486V158.772H233.251V231.512H225.752V223.537L214.141 217.979H208.578V214.837H204.949V211.937H201.563V187.529H151.006V256.161H133.348V235.137L134.316 234.653C133.832 234.412 133.348 234.17 132.864 233.928C132.138 233.687 131.655 233.445 131.171 233.203C127.301 231.512 122.463 230.545 117.383 230.303C117.383 230.303 117.141 230.303 116.899 230.303C116.657 230.303 116.657 230.303 116.415 230.303C115.448 230.303 114.48 230.303 113.512 230.303C105.53 230.303 98.0311 231.995 92.7093 234.653H93.1931V236.103V256.886L84.7268 260.753L83.0335 226.678H75.2928V218.22H71.6644V216.529H68.2778V215.804H40.7016V216.529H37.315V218.22H33.6866V245.045H3.44953V244.32H1.75626V245.045H-6.95202L-13.2413 248.911V193.329H-46.623V358.384H938.863V357.417H1490.15V197.437H1470.07Z" fill="#E5DAF2"/>
<path d="M1154.87 69.5985V50.2656H1113.99V69.5985L1097.79 101.981V358.384H1171.08V101.981L1154.87 69.5985Z" fill="#AAA3B5"/>
<path d="M1132.38 69.5985H1091.5L1075.29 101.981V358.384H1148.59V101.981L1132.38 69.5985Z" fill="#B5ADC0"/>
<path d="M1132.38 50.2656H1091.5V69.5985H1132.38V50.2656Z" fill="#D6CDE4"/>
<path d="M1089.81 112.614H1082.31V123.489H1089.81V112.614Z" fill="white"/>
<path d="M1102.63 112.614H1095.13V123.489H1102.63V112.614Z" fill="#D6CDE4"/>
<path d="M1115.69 112.614H1108.2V123.489H1115.69V112.614Z" fill="#D6CDE4"/>
<path d="M1128.76 112.614H1121.26V123.489H1128.76V112.614Z" fill="white"/>
<path d="M1141.82 112.614H1134.32V123.489H1141.82V112.614Z" fill="#D6CDE4"/>
<path d="M1089.81 130.497H1082.31V141.372H1089.81V130.497Z" fill="#D6CDE4"/>
<path d="M1102.63 130.497H1095.13V141.372H1102.63V130.497Z" fill="#D6CDE4"/>
<path d="M1115.69 130.497H1108.19V141.372H1115.69V130.497Z" fill="#D6CDE4"/>
<path d="M1128.75 130.497H1121.25V141.372H1128.75V130.497Z" fill="#D6CDE4"/>
<path d="M1141.82 130.497H1134.32V141.372H1141.82V130.497Z" fill="white"/>
<path d="M1089.81 148.138H1082.31V159.013H1089.81V148.138Z" fill="#D6CDE4"/>
<path d="M1102.63 148.139H1095.13V159.013H1102.63V148.139Z" fill="white"/>
<path d="M1115.69 148.139H1108.19V159.013H1115.69V148.139Z" fill="#D6CDE4"/>
<path d="M1128.75 148.139H1121.25V159.013H1128.75V148.139Z" fill="#D6CDE4"/>
<path d="M1141.82 148.139H1134.32V159.013H1141.82V148.139Z" fill="#D6CDE4"/>
<path d="M1089.81 166.021H1082.31V176.896H1089.81V166.021Z" fill="#D6CDE4"/>
<path d="M1102.63 166.021H1095.13V176.896H1102.63V166.021Z" fill="#D6CDE4"/>
<path d="M1115.69 166.021H1108.19V176.896H1115.69V166.021Z" fill="#D6CDE4"/>
<path d="M1128.75 166.021H1121.25V176.896H1128.75V166.021Z" fill="white"/>
<path d="M1141.82 166.021H1134.32V176.896H1141.82V166.021Z" fill="#D6CDE4"/>
<path d="M1089.81 183.663H1082.31V194.537H1089.81V183.663Z" fill="#D6CDE4"/>
<path d="M1102.63 183.663H1095.13V194.538H1102.63V183.663Z" fill="white"/>
<path d="M1115.69 183.663H1108.19V194.538H1115.69V183.663Z" fill="#D6CDE4"/>
<path d="M1128.75 183.663H1121.25V194.538H1128.75V183.663Z" fill="#D6CDE4"/>
<path d="M1141.82 183.663H1134.32V194.538H1141.82V183.663Z" fill="#D6CDE4"/>
<path d="M1089.81 201.546H1082.31V212.42H1089.81V201.546Z" fill="#D6CDE4"/>
<path d="M1102.63 201.546H1095.13V212.421H1102.63V201.546Z" fill="#D6CDE4"/>
<path d="M1115.69 201.546H1108.19V212.421H1115.69V201.546Z" fill="#D6CDE4"/>
<path d="M1128.75 201.546H1121.25V212.421H1128.75V201.546Z" fill="white"/>
<path d="M1141.82 201.546H1134.32V212.421H1141.82V201.546Z" fill="#D6CDE4"/>
<path d="M1089.81 219.187H1082.31V230.062H1089.81V219.187Z" fill="white"/>
<path d="M1102.63 219.187H1095.13V230.062H1102.63V219.187Z" fill="white"/>
<path d="M1115.69 219.187H1108.19V230.062H1115.69V219.187Z" fill="#D6CDE4"/>
<path d="M1128.75 219.187H1121.25V230.062H1128.75V219.187Z" fill="white"/>
<path d="M1141.82 219.187H1134.32V230.062H1141.82V219.187Z" fill="#D6CDE4"/>
<path d="M1089.81 237.071H1082.31V247.946H1089.81V237.071Z" fill="#D6CDE4"/>
<path d="M1102.63 237.07H1095.13V247.945H1102.63V237.07Z" fill="#D6CDE4"/>
<path d="M1115.69 237.07H1108.19V247.945H1115.69V237.07Z" fill="white"/>
<path d="M1128.75 237.07H1121.25V247.945H1128.75V237.07Z" fill="#D6CDE4"/>
<path d="M1141.82 237.07H1134.32V247.945H1141.82V237.07Z" fill="white"/>
<path d="M1089.81 253.986H1082.31V264.861H1089.81V253.986Z" fill="#D6CDE4"/>
<path d="M1102.63 253.986H1095.13V264.861H1102.63V253.986Z" fill="white"/>
<path d="M1115.69 253.986H1108.2V264.861H1115.69V253.986Z" fill="#D6CDE4"/>
<path d="M1128.76 253.986H1121.26V264.861H1128.76V253.986Z" fill="white"/>
<path d="M1141.82 253.986H1134.32V264.861H1141.82V253.986Z" fill="#D6CDE4"/>
<path d="M1089.81 271.869H1082.31V282.744H1089.81V271.869Z" fill="#D6CDE4"/>
<path d="M1102.63 271.869H1095.13V282.744H1102.63V271.869Z" fill="white"/>
<path d="M1115.69 271.869H1108.19V282.744H1115.69V271.869Z" fill="#D6CDE4"/>
<path d="M1128.75 271.869H1121.25V282.744H1128.75V271.869Z" fill="white"/>
<path d="M1141.82 271.869H1134.32V282.744H1141.82V271.869Z" fill="white"/>
<path d="M1089.81 289.51H1082.31V300.385H1089.81V289.51Z" fill="#D6CDE4"/>
<path d="M1102.63 289.51H1095.13V300.385H1102.63V289.51Z" fill="#D6CDE4"/>
<path d="M1115.69 289.51H1108.19V300.385H1115.69V289.51Z" fill="white"/>
<path d="M1128.75 289.51H1121.25V300.385H1128.75V289.51Z" fill="#D6CDE4"/>
<path d="M1141.82 289.51H1134.32V300.385H1141.82V289.51Z" fill="#D6CDE4"/>
<path d="M1089.81 307.394H1082.31V318.268H1089.81V307.394Z" fill="white"/>
<path d="M1102.63 307.394H1095.13V318.268H1102.63V307.394Z" fill="#D6CDE4"/>
<path d="M1115.69 307.394H1108.19V318.268H1115.69V307.394Z" fill="#D6CDE4"/>
<path d="M1128.75 307.394H1121.25V318.268H1128.75V307.394Z" fill="#D6CDE4"/>
<path d="M1141.82 307.394H1134.32V318.268H1141.82V307.394Z" fill="white"/>
<path d="M1089.81 325.035H1082.31V335.91H1089.81V325.035Z" fill="#D6CDE4"/>
<path d="M1102.63 325.035H1095.13V335.91H1102.63V325.035Z" fill="#D6CDE4"/>
<path d="M1115.69 325.035H1108.19V335.91H1115.69V325.035Z" fill="white"/>
<path d="M1128.75 325.035H1121.25V335.91H1128.75V325.035Z" fill="white"/>
<path d="M1141.82 325.035H1134.32V335.91H1141.82V325.035Z" fill="#D6CDE4"/>
<path d="M782.598 358.384V152.005L766.391 119.381V100.048H725.511V119.381L709.304 152.005V358.384H782.598Z" fill="#AAA3B5"/>
<path d="M760.345 358.384V152.005L744.138 119.381H703.258L686.809 152.005V358.384H760.345Z" fill="#B5ADC0"/>
<path d="M744.138 100.048H703.258V119.381H744.138V100.048Z" fill="#D6CDE4"/>
<path d="M701.321 162.396H693.822V173.271H701.321V162.396Z" fill="white"/>
<path d="M714.384 162.396H706.885V173.271H714.384V162.396Z" fill="#D6CDE4"/>
<path d="M727.445 162.396H719.946V173.271H727.445V162.396Z" fill="#D6CDE4"/>
<path d="M740.266 162.396H732.768V173.271H740.266V162.396Z" fill="white"/>
<path d="M753.329 162.396H745.83V173.271H753.329V162.396Z" fill="#D6CDE4"/>
<path d="M701.321 180.28H693.822V191.154H701.321V180.28Z" fill="#D6CDE4"/>
<path d="M714.384 180.28H706.885V191.154H714.384V180.28Z" fill="white"/>
<path d="M727.445 180.28H719.946V191.154H727.445V180.28Z" fill="#D6CDE4"/>
<path d="M740.266 180.28H732.768V191.154H740.266V180.28Z" fill="#D6CDE4"/>
<path d="M753.329 180.28H745.83V191.154H753.329V180.28Z" fill="#D6CDE4"/>
<path d="M701.321 197.922H693.822V208.796H701.321V197.922Z" fill="white"/>
<path d="M714.384 197.921H706.885V208.796H714.384V197.921Z" fill="#D6CDE4"/>
<path d="M727.445 197.921H719.946V208.796H727.445V197.921Z" fill="white"/>
<path d="M740.266 197.921H732.768V208.796H740.266V197.921Z" fill="white"/>
<path d="M753.329 197.921H745.83V208.796H753.329V197.921Z" fill="#D6CDE4"/>
<path d="M701.321 215.804H693.822V226.679H701.321V215.804Z" fill="#D6CDE4"/>
<path d="M714.384 215.804H706.885V226.678H714.384V215.804Z" fill="#D6CDE4"/>
<path d="M727.445 215.804H719.946V226.678H727.445V215.804Z" fill="white"/>
<path d="M740.266 215.804H732.768V226.678H740.266V215.804Z" fill="#D6CDE4"/>
<path d="M753.329 215.804H745.83V226.678H753.329V215.804Z" fill="#D6CDE4"/>
<path d="M701.321 233.445H693.822V244.32H701.321V233.445Z" fill="#D6CDE4"/>
<path d="M714.384 233.445H706.885V244.32H714.384V233.445Z" fill="#D6CDE4"/>
<path d="M727.445 233.445H719.946V244.32H727.445V233.445Z" fill="white"/>
<path d="M740.266 233.445H732.768V244.32H740.266V233.445Z" fill="#D6CDE4"/>
<path d="M753.329 233.445H745.83V244.32H753.329V233.445Z" fill="#D6CDE4"/>
<path d="M701.321 251.328H693.822V262.203H701.321V251.328Z" fill="#D6CDE4"/>
<path d="M714.384 251.328H706.885V262.203H714.384V251.328Z" fill="white"/>
<path d="M727.445 251.328H719.946V262.203H727.445V251.328Z" fill="#D6CDE4"/>
<path d="M740.266 251.328H732.768V262.203H740.266V251.328Z" fill="#D6CDE4"/>
<path d="M753.329 251.328H745.83V262.203H753.329V251.328Z" fill="white"/>
<path d="M701.321 269.212H693.822V280.086H701.321V269.212Z" fill="white"/>
<path d="M714.384 269.211H706.885V280.086H714.384V269.211Z" fill="#D6CDE4"/>
<path d="M727.445 269.211H719.946V280.086H727.445V269.211Z" fill="#D6CDE4"/>
<path d="M740.266 269.211H732.768V280.086H740.266V269.211Z" fill="#D6CDE4"/>
<path d="M753.329 269.211H745.83V280.086H753.329V269.211Z" fill="white"/>
<path d="M701.321 286.853H693.822V297.728H701.321V286.853Z" fill="#D6CDE4"/>
<path d="M714.384 286.852H706.885V297.727H714.384V286.852Z" fill="#D6CDE4"/>
<path d="M727.445 286.852H719.946V297.727H727.445V286.852Z" fill="white"/>
<path d="M740.266 286.852H732.768V297.727H740.266V286.852Z" fill="white"/>
<path d="M753.329 286.852H745.83V297.727H753.329V286.852Z" fill="#D6CDE4"/>
<path d="M701.321 304.01H693.822V314.885H701.321V304.01Z" fill="#D6CDE4"/>
<path d="M714.384 304.01H706.885V314.885H714.384V304.01Z" fill="white"/>
<path d="M727.445 304.01H719.946V314.885H727.445V304.01Z" fill="#D6CDE4"/>
<path d="M740.266 304.01H732.768V314.885H740.266V304.01Z" fill="#D6CDE4"/>
<path d="M753.329 304.01H745.83V314.885H753.329V304.01Z" fill="#D6CDE4"/>
<path d="M701.321 321.652H693.822V332.527H701.321V321.652Z" fill="#D6CDE4"/>
<path d="M714.384 321.652H706.885V332.527H714.384V321.652Z" fill="#D6CDE4"/>
<path d="M727.445 321.652H719.946V332.527H727.445V321.652Z" fill="white"/>
<path d="M740.266 321.652H732.768V332.527H740.266V321.652Z" fill="white"/>
<path d="M753.329 321.652H745.83V332.527H753.329V321.652Z" fill="white"/>
<path d="M701.321 339.534H693.822V350.409H701.321V339.534Z" fill="white"/>
<path d="M714.384 339.534H706.885V350.409H714.384V339.534Z" fill="white"/>
<path d="M727.445 339.534H719.946V350.409H727.445V339.534Z" fill="#D6CDE4"/>
<path d="M740.266 339.534H732.768V350.409H740.266V339.534Z" fill="#D6CDE4"/>
<path d="M753.329 339.534H745.83V350.409H753.329V339.534Z" fill="#D6CDE4"/>
<path d="M425.561 358.384H489.179V239.245L425.561 206.137V358.384Z" fill="#D6CDE4"/>
<path d="M481.682 245.286H433.061V251.086H481.682V245.286Z" fill="#EDE3FC"/>
<path d="M481.682 257.128H433.061V262.927H481.682V257.128Z" fill="white"/>
<path d="M481.682 269.211H433.061V275.011H481.682V269.211Z" fill="#EDE3FC"/>
<path d="M481.682 281.294H433.061V287.094H481.682V281.294Z" fill="white"/>
<path d="M481.682 293.135H433.061V298.935H481.682V293.135Z" fill="white"/>
<path d="M481.682 305.219H433.061V311.019H481.682V305.219Z" fill="#EDE3FC"/>
<path d="M481.682 317.06H433.061V322.86H481.682V317.06Z" fill="#EDE3FC"/>
<path d="M481.682 329.143H433.061V334.943H481.682V329.143Z" fill="#EDE3FC"/>
<path d="M481.682 341.227H433.061V347.026H481.682V341.227Z" fill="#EDE3FC"/>
<path d="M425.56 206.137H400.887V358.384H425.56V206.137Z" fill="#B5ADC0"/>
<path d="M976.359 358.384H912.74V239.245L976.359 206.137V358.384Z" fill="#D6CDE4"/>
<path d="M968.859 245.286H920.238V251.086H968.859V245.286Z" fill="#EDE3FC"/>
<path d="M968.859 257.127H920.238V262.927H968.859V257.127Z" fill="white"/>
<path d="M968.859 269.211H920.238V275.011H968.859V269.211Z" fill="#EDE3FC"/>
<path d="M968.859 281.294H920.238V287.093H968.859V281.294Z" fill="white"/>
<path d="M968.859 293.135H920.238V298.935H968.859V293.135Z" fill="#EDE3FC"/>
<path d="M968.859 305.218H920.238V311.018H968.859V305.218Z" fill="white"/>
<path d="M968.859 317.059H920.238V322.859H968.859V317.059Z" fill="#EDE3FC"/>
<path d="M968.859 329.142H920.238V334.942H968.859V329.142Z" fill="#EDE3FC"/>
<path d="M968.859 341.225H920.238V347.025H968.859V341.225Z" fill="#EDE3FC"/>
<path d="M1001.03 206.137H976.357V358.384H1001.03V206.137Z" fill="#B5ADC0"/>
<path d="M875.247 358.384H811.628V170.13L875.247 137.022V358.384Z" fill="#D6CDE4"/>
<path d="M867.747 239.245H819.126V245.045H867.747V239.245Z" fill="white"/>
<path d="M867.747 251.328H819.126V257.128H867.747V251.328Z" fill="#EDE3FC"/>
<path d="M867.747 263.169H819.126V268.969H867.747V263.169Z" fill="#EDE3FC"/>
<path d="M867.747 275.253H819.126V281.052H867.747V275.253Z" fill="white"/>
<path d="M867.747 287.094H819.126V292.894H867.747V287.094Z" fill="white"/>
<path d="M867.747 299.177H819.126V304.977H867.747V299.177Z" fill="#EDE3FC"/>
<path d="M867.747 179.313H819.126V185.113H867.747V179.313Z" fill="#EDE3FC"/>
<path d="M867.747 191.396H819.126V197.195H867.747V191.396Z" fill="#EDE3FC"/>
<path d="M867.747 203.237H819.126V209.037H867.747V203.237Z" fill="white"/>
<path d="M867.747 215.32H819.126V221.12H867.747V215.32Z" fill="#EDE3FC"/>
<path d="M867.747 227.162H819.126V232.962H867.747V227.162Z" fill="#EDE3FC"/>
<path d="M867.747 311.26H819.126V317.06H867.747V311.26Z" fill="#EDE3FC"/>
<path d="M867.747 323.101H819.126V328.901H867.747V323.101Z" fill="#EDE3FC"/>
<path d="M867.747 335.185H819.126V340.985H867.747V335.185Z" fill="#EDE3FC"/>
<path d="M899.918 137.022H875.245V358.384H899.918V137.022Z" fill="#B5ADC0"/>
<path d="M219.465 358.384H155.847V170.13L219.465 137.022V358.384Z" fill="#D6CDE4"/>
<path d="M211.967 239.245H163.346V245.045H211.967V239.245Z" fill="#EDE3FC"/>
<path d="M211.967 251.328H163.346V257.128H211.967V251.328Z" fill="white"/>
<path d="M211.967 263.169H163.346V268.969H211.967V263.169Z" fill="#EDE3FC"/>
<path d="M211.967 275.253H163.346V281.052H211.967V275.253Z" fill="#EDE3FC"/>
<path d="M211.967 287.094H163.346V292.894H211.967V287.094Z" fill="#EDE3FC"/>
<path d="M211.967 299.177H163.346V304.977H211.967V299.177Z" fill="white"/>
<path d="M211.967 179.313H163.346V185.113H211.967V179.313Z" fill="white"/>
<path d="M211.967 191.396H163.346V197.195H211.967V191.396Z" fill="#EDE3FC"/>
<path d="M211.967 203.237H163.346V209.037H211.967V203.237Z" fill="#EDE3FC"/>
<path d="M211.967 215.32H163.346V221.12H211.967V215.32Z" fill="white"/>
<path d="M211.967 227.162H163.346V232.962H211.967V227.162Z" fill="#EDE3FC"/>
<path d="M211.967 311.26H163.346V317.06H211.967V311.26Z" fill="white"/>
<path d="M211.967 323.101H163.346V328.901H211.967V323.101Z" fill="white"/>
<path d="M211.967 335.185H163.346V340.985H211.967V335.185Z" fill="#EDE3FC"/>
<path d="M244.138 137.022H219.465V358.384H244.138V137.022Z" fill="#B5ADC0"/>
<path d="M1448.06 358.384H1384.68V187.771L1448.06 153.697V358.384Z" fill="#B5ADC0"/>
<path d="M1401.61 238.52H1392.42V248.911H1401.61V238.52Z" fill="#C6BDD2"/>
<path d="M1401.61 252.778H1392.42V263.169H1401.61V252.778Z" fill="#C6BDD2"/>
<path d="M1401.61 267.036H1392.42V277.428H1401.61V267.036Z" fill="#C6BDD2"/>
<path d="M1401.61 281.294H1392.42V291.685H1401.61V281.294Z" fill="white"/>
<path d="M1401.61 295.552H1392.42V305.943H1401.61V295.552Z" fill="#C6BDD2"/>
<path d="M1401.61 309.81H1392.42V320.202H1401.61V309.81Z" fill="#C6BDD2"/>
<path d="M1401.61 324.068H1392.42V334.46H1401.61V324.068Z" fill="#C6BDD2"/>
<path d="M1401.61 338.326H1392.42V348.717H1401.61V338.326Z" fill="#C6BDD2"/>
<path d="M1401.61 195.504H1392.42V205.896H1401.61V195.504Z" fill="white"/>
<path d="M1401.61 209.762H1392.42V220.153H1401.61V209.762Z" fill="#C6BDD2"/>
<path d="M1401.61 224.262H1392.42V234.653H1401.61V224.262Z" fill="#C6BDD2"/>
<path d="M351.3 358.383H263.008V120.589L351.3 72.9814V358.383Z" fill="#B5ADC0"/>
<path d="M286.47 191.154H273.407V205.654H286.47V191.154Z" fill="white"/>
<path d="M304.61 191.154H291.548V205.654H304.61V191.154Z" fill="#C6BDD2"/>
<path d="M322.753 191.154H309.69V205.654H322.753V191.154Z" fill="#C6BDD2"/>
<path d="M340.896 191.154H327.834V205.654H340.896V191.154Z" fill="#C6BDD2"/>
<path d="M286.469 210.97H273.406V225.47H286.469V210.97Z" fill="#C6BDD2"/>
<path d="M304.61 210.97H291.548V225.47H304.61V210.97Z" fill="#C6BDD2"/>
<path d="M322.753 210.97H309.69V225.47H322.753V210.97Z" fill="white"/>
<path d="M340.896 210.97H327.834V225.47H340.896V210.97Z" fill="#C6BDD2"/>
<path d="M286.469 231.028H273.406V245.528H286.469V231.028Z" fill="#C6BDD2"/>
<path d="M304.61 231.028H291.548V245.528H304.61V231.028Z" fill="white"/>
<path d="M322.753 231.028H309.69V245.528H322.753V231.028Z" fill="#C6BDD2"/>
<path d="M340.896 231.028H327.834V245.528H340.896V231.028Z" fill="#C6BDD2"/>
<path d="M286.469 250.844H273.406V265.344H286.469V250.844Z" fill="#C6BDD2"/>
<path d="M304.61 250.844H291.548V265.344H304.61V250.844Z" fill="#C6BDD2"/>
<path d="M322.753 250.844H309.69V265.344H322.753V250.844Z" fill="white"/>
<path d="M340.896 250.844H327.834V265.344H340.896V250.844Z" fill="white"/>
<path d="M286.469 270.66H273.406V285.16H286.469V270.66Z" fill="#C6BDD2"/>
<path d="M304.61 270.66H291.548V285.16H304.61V270.66Z" fill="#C6BDD2"/>
<path d="M322.753 270.66H309.69V285.16H322.753V270.66Z" fill="#C6BDD2"/>
<path d="M340.896 270.66H327.834V285.16H340.896V270.66Z" fill="#C6BDD2"/>
<path d="M286.469 290.718H273.406V305.218H286.469V290.718Z" fill="#C6BDD2"/>
<path d="M304.61 290.718H291.548V305.218H304.61V290.718Z" fill="#C6BDD2"/>
<path d="M322.753 290.718H309.69V305.218H322.753V290.718Z" fill="white"/>
<path d="M340.896 290.718H327.834V305.218H340.896V290.718Z" fill="#C6BDD2"/>
<path d="M286.469 310.534H273.406V325.034H286.469V310.534Z" fill="#C6BDD2"/>
<path d="M304.61 310.534H291.548V325.034H304.61V310.534Z" fill="white"/>
<path d="M322.753 310.534H309.69V325.034H322.753V310.534Z" fill="#C6BDD2"/>
<path d="M340.896 310.534H327.834V325.034H340.896V310.534Z" fill="#C6BDD2"/>
<path d="M286.469 330.351H273.406V344.85H286.469V330.351Z" fill="#C6BDD2"/>
<path d="M304.61 330.351H291.548V344.85H304.61V330.351Z" fill="#C6BDD2"/>
<path d="M322.753 330.351H309.69V344.85H322.753V330.351Z" fill="#C6BDD2"/>
<path d="M340.896 330.351H327.834V344.85H340.896V330.351Z" fill="white"/>
<path d="M286.47 131.463H273.407V145.963H286.47V131.463Z" fill="white"/>
<path d="M304.61 131.463H291.548V145.962H304.61V131.463Z" fill="#C6BDD2"/>
<path d="M322.753 131.463H309.69V145.962H322.753V131.463Z" fill="#C6BDD2"/>
<path d="M340.896 131.463H327.834V145.962H340.896V131.463Z" fill="white"/>
<path d="M286.469 151.279H273.406V165.779H286.469V151.279Z" fill="#C6BDD2"/>
<path d="M304.61 151.279H291.548V165.779H304.61V151.279Z" fill="#C6BDD2"/>
<path d="M322.753 151.279H309.69V165.779H322.753V151.279Z" fill="white"/>
<path d="M340.896 151.279H327.834V165.779H340.896V151.279Z" fill="#C6BDD2"/>
<path d="M286.469 171.095H273.406V185.595H286.469V171.095Z" fill="#C6BDD2"/>
<path d="M304.61 171.095H291.548V185.595H304.61V171.095Z" fill="#C6BDD2"/>
<path d="M322.753 171.095H309.69V185.595H322.753V171.095Z" fill="white"/>
<path d="M340.896 171.095H327.834V185.595H340.896V171.095Z" fill="#C6BDD2"/>
<path d="M381.78 72.9812H351.301V358.383H381.78V72.9812Z" fill="#AAA3B5"/>
<path d="M1241.48 169.889H1201.32V358.384H1241.48V169.889Z" fill="#B4ACBF"/>
<path d="M1327.84 169.888H1241.48V358.384H1327.84V169.888Z" fill="#BCB4C8"/>
<path d="M1223.09 183.663H1215.35V192.604H1223.09V183.663Z" fill="#EDE3FC"/>
<path d="M1223.09 213.629H1215.35V222.57H1223.09V213.629Z" fill="#EDE3FC"/>
<path d="M1223.09 243.595H1215.35V252.536H1223.09V243.595Z" fill="#EDE3FC"/>
<path d="M1259.62 182.454H1246.8V194.537H1259.62V182.454Z" fill="white"/>
<path d="M1276.07 182.454H1263.25V194.537H1276.07V182.454Z" fill="white"/>
<path d="M1292.28 182.454H1279.46V194.537H1292.28V182.454Z" fill="#D6CDE4"/>
<path d="M1308.48 182.454H1295.66V194.537H1308.48V182.454Z" fill="white"/>
<path d="M1324.93 182.454H1312.11V194.537H1324.93V182.454Z" fill="white"/>
<path d="M1259.62 212.179H1246.8V224.262H1259.62V212.179Z" fill="white"/>
<path d="M1276.07 212.179H1263.25V224.262H1276.07V212.179Z" fill="#D6CDE4"/>
<path d="M1292.28 212.179H1279.46V224.262H1292.28V212.179Z" fill="white"/>
<path d="M1308.48 212.179H1295.66V224.262H1308.48V212.179Z" fill="#D6CDE4"/>
<path d="M1324.93 212.179H1312.11V224.262H1324.93V212.179Z" fill="white"/>
<path d="M1259.62 241.661H1246.8V253.744H1259.62V241.661Z" fill="white"/>
<path d="M1276.07 241.661H1263.25V253.744H1276.07V241.661Z" fill="white"/>
<path d="M1292.28 241.661H1279.46V253.744H1292.28V241.661Z" fill="white"/>
<path d="M1308.48 241.661H1295.66V253.744H1308.48V241.661Z" fill="#D6CDE4"/>
<path d="M1324.93 241.661H1312.11V253.744H1324.93V241.661Z" fill="white"/>
<path d="M1223.09 276.219H1215.35V285.16H1223.09V276.219Z" fill="#EDE3FC"/>
<path d="M1223.09 306.185H1215.35V315.127H1223.09V306.185Z" fill="#EDE3FC"/>
<path d="M1223.09 336.393H1215.35V345.334H1223.09V336.393Z" fill="#EDE3FC"/>
<path d="M1259.62 275.252H1246.8V287.335H1259.62V275.252Z" fill="white"/>
<path d="M1276.07 275.252H1263.25V287.335H1276.07V275.252Z" fill="#D6CDE4"/>
<path d="M1292.28 275.252H1279.46V287.335H1292.28V275.252Z" fill="#D6CDE4"/>
<path d="M1308.48 275.252H1295.66V287.335H1308.48V275.252Z" fill="white"/>
<path d="M1324.93 275.252H1312.11V287.335H1324.93V275.252Z" fill="#D6CDE4"/>
<path d="M1259.62 304.735H1246.8V316.818H1259.62V304.735Z" fill="#D6CDE4"/>
<path d="M1276.07 304.735H1263.25V316.818H1276.07V304.735Z" fill="white"/>
<path d="M1292.28 304.735H1279.46V316.818H1292.28V304.735Z" fill="white"/>
<path d="M1308.48 304.735H1295.66V316.818H1308.48V304.735Z" fill="#D6CDE4"/>
<path d="M1324.93 304.735H1312.11V316.818H1324.93V304.735Z" fill="white"/>
<path d="M1259.62 334.218H1246.8V346.301H1259.62V334.218Z" fill="white"/>
<path d="M1276.07 334.218H1263.25V346.301H1276.07V334.218Z" fill="white"/>
<path d="M1292.28 334.218H1279.46V346.301H1292.28V334.218Z" fill="white"/>
<path d="M1308.48 334.218H1295.66V346.301H1308.48V334.218Z" fill="white"/>
<path d="M1324.93 334.218H1312.11V346.301H1324.93V334.218Z" fill="white"/>
<path d="M34.6568 169.889H-5.49805V358.384H34.6568V169.889Z" fill="#B4ACBF"/>
<path d="M121.256 169.888H34.8994V358.384H121.256V169.888Z" fill="#BCB4C8"/>
<path d="M16.5141 183.663H8.77344V192.604H16.5141V183.663Z" fill="#EDE3FC"/>
<path d="M16.5141 213.629H8.77344V222.57H16.5141V213.629Z" fill="#EDE3FC"/>
<path d="M16.5141 243.595H8.77344V252.536H16.5141V243.595Z" fill="#EDE3FC"/>
<path d="M53.0402 182.454H40.2197V194.537H53.0402V182.454Z" fill="white"/>
<path d="M69.2473 182.454H56.4268V194.537H69.2473V182.454Z" fill="white"/>
<path d="M85.4543 182.454H72.6338V194.537H85.4543V182.454Z" fill="#D6CDE4"/>
<path d="M101.904 182.454H89.083V194.537H101.904V182.454Z" fill="white"/>
<path d="M118.112 182.454H105.291V194.537H118.112V182.454Z" fill="white"/>
<path d="M53.0402 212.179H40.2197V224.262H53.0402V212.179Z" fill="white"/>
<path d="M69.2473 212.179H56.4268V224.262H69.2473V212.179Z" fill="#D6CDE4"/>
<path d="M85.4543 212.179H72.6338V224.262H85.4543V212.179Z" fill="white"/>
<path d="M101.904 212.179H89.083V224.262H101.904V212.179Z" fill="white"/>
<path d="M118.112 212.179H105.291V224.262H118.112V212.179Z" fill="white"/>
<path d="M53.0402 241.661H40.2197V253.744H53.0402V241.661Z" fill="white"/>
<path d="M69.2473 241.661H56.4268V253.744H69.2473V241.661Z" fill="#D6CDE4"/>
<path d="M85.4543 241.661H72.6338V253.744H85.4543V241.661Z" fill="white"/>
<path d="M101.904 241.661H89.083V253.744H101.904V241.661Z" fill="#D6CDE4"/>
<path d="M118.112 241.661H105.291V253.744H118.112V241.661Z" fill="white"/>
<path d="M16.5141 276.219H8.77344V285.16H16.5141V276.219Z" fill="#EDE3FC"/>
<path d="M16.5141 306.185H8.77344V315.127H16.5141V306.185Z" fill="#EDE3FC"/>
<path d="M16.5141 336.393H8.77344V345.334H16.5141V336.393Z" fill="#EDE3FC"/>
<path d="M53.0402 275.252H40.2197V287.335H53.0402V275.252Z" fill="#D6CDE4"/>
<path d="M69.2473 275.252H56.4268V287.335H69.2473V275.252Z" fill="white"/>
<path d="M85.4543 275.252H72.6338V287.335H85.4543V275.252Z" fill="white"/>
<path d="M101.904 275.252H89.083V287.335H101.904V275.252Z" fill="#D6CDE4"/>
<path d="M118.112 275.252H105.291V287.335H118.112V275.252Z" fill="white"/>
<path d="M53.0402 304.735H40.2197V316.818H53.0402V304.735Z" fill="white"/>
<path d="M69.2473 304.735H56.4268V316.818H69.2473V304.735Z" fill="white"/>
<path d="M85.4543 304.735H72.6338V316.818H85.4543V304.735Z" fill="#D6CDE4"/>
<path d="M101.904 304.735H89.083V316.818H101.904V304.735Z" fill="white"/>
<path d="M118.112 304.735H105.291V316.818H118.112V304.735Z" fill="white"/>
<path d="M53.0402 334.218H40.2197V346.301H53.0402V334.218Z" fill="white"/>
<path d="M69.2473 334.218H56.4268V346.301H69.2473V334.218Z" fill="white"/>
<path d="M85.4543 334.218H72.6338V346.301H85.4543V334.218Z" fill="white"/>
<path d="M101.904 334.218H89.083V346.301H101.904V334.218Z" fill="white"/>
<path d="M118.112 334.218H105.291V346.301H118.112V334.218Z" fill="white"/>
<path d="M1380.81 307.635C1380.81 312.227 1376.7 315.852 1371.62 315.852C1366.54 315.852 1362.43 312.227 1362.43 307.635C1362.43 303.044 1366.54 299.419 1371.62 299.419C1376.7 299.419 1380.81 303.044 1380.81 307.635Z" fill="#CFC6DC"/>
<path d="M1387.34 318.993C1387.34 325.276 1380.32 330.351 1371.62 330.351C1362.91 330.351 1355.89 325.276 1355.89 318.993C1355.89 312.71 1362.91 307.635 1371.62 307.635C1380.32 307.635 1387.34 312.71 1387.34 318.993Z" fill="#CFC6DC"/>
<path d="M1358.8 315.61C1358.8 315.61 1367.99 318.752 1370.89 319.477L1371.37 304.252L1371.62 312.952C1373.55 311.743 1379.12 308.36 1379.12 308.36C1379.12 308.36 1373.31 313.677 1371.62 315.127L1371.86 323.343C1375.49 321.652 1384.44 317.06 1384.44 317.06C1384.44 317.06 1374.28 324.068 1372.1 325.76L1373.31 358.384H1369.2L1370.65 321.893C1369.92 321.41 1358.8 315.61 1358.8 315.61Z" fill="#B4ACBF"/>
<path d="M1063.69 347.751C1072.9 347.751 1080.38 342.557 1080.38 336.151C1080.38 329.744 1072.9 324.551 1063.69 324.551C1054.47 324.551 1046.99 329.744 1046.99 336.151C1046.99 342.557 1054.47 347.751 1063.69 347.751Z" fill="#C2BACE"/>
<path d="M1075.54 321.893C1075.54 328.176 1070.22 333.493 1063.44 333.493C1056.67 333.493 1051.35 328.418 1051.35 321.893C1051.35 315.61 1056.67 310.293 1063.44 310.293C1069.98 310.293 1075.54 315.368 1075.54 321.893Z" fill="#C2BACE"/>
<path d="M1077.23 329.868C1077.23 329.868 1068.52 334.218 1064.65 336.151L1064.17 325.034C1064.65 324.551 1070.94 318.993 1070.94 318.993C1070.94 318.993 1066.1 322.135 1064.17 323.585L1063.68 310.776L1063.44 318.993C1061.99 318.026 1058.12 315.851 1058.12 315.851C1058.12 315.851 1062.23 319.476 1063.44 320.443L1063.2 329.143C1060.3 327.693 1053.28 324.068 1053.28 324.068C1053.28 324.068 1061.51 330.834 1063.2 332.043L1062.96 340.501C1058.85 338.326 1049.9 333.976 1049.9 333.976C1049.9 333.976 1060.06 341.709 1062.72 343.642L1062.23 358.867H1065.86L1065.14 339.534C1067.07 337.118 1077.23 329.868 1077.23 329.868Z" fill="#B4ACBF"/>
<path d="M1186.33 323.584L1171.09 349.684H1201.81L1186.33 323.584Z" fill="#BAB1C5"/>
<path d="M1186.32 312.71L1172.29 336.634H1200.35L1186.32 312.71Z" fill="#BAB1C5"/>
<path d="M1186.33 304.251L1174.96 323.826H1197.94L1186.33 304.251Z" fill="#BAB1C5"/>
<path d="M1186.33 310.293L1184.63 358.383H1188.26L1186.33 310.293Z" fill="#B4ACBF"/>
<path d="M1037.8 320.443C1037.8 328.418 1031.51 334.943 1024.01 334.943C1016.27 334.943 1010.23 328.418 1010.23 320.443C1010.23 312.468 1016.52 305.943 1024.01 305.943C1031.76 305.943 1037.8 312.468 1037.8 320.443Z" fill="#BAB1C5"/>
<path d="M1035.62 320.443C1035.62 320.443 1027.4 323.101 1024.98 324.068L1024.5 310.535L1024.25 318.268C1022.56 317.301 1017.48 314.16 1017.48 314.16C1017.48 314.16 1022.56 318.751 1024.25 320.201L1024.01 327.451C1020.87 325.76 1012.89 321.893 1012.89 321.893C1012.89 321.893 1021.84 328.176 1024.01 329.626L1022.8 358.626H1026.43L1025.22 326.001C1025.71 325.518 1035.62 320.443 1035.62 320.443Z" fill="#B4ACBF"/>
<path d="M641.092 347.751C650.31 347.751 657.783 342.557 657.783 336.151C657.783 329.745 650.31 324.551 641.092 324.551C631.874 324.551 624.401 329.745 624.401 336.151C624.401 342.557 631.874 347.751 641.092 347.751Z" fill="#C2BACE"/>
<path d="M652.946 321.893C652.946 328.176 647.625 333.493 640.852 333.493C634.079 333.493 628.757 328.418 628.757 321.893C628.757 315.368 634.079 310.293 640.852 310.293C647.383 310.293 652.946 315.368 652.946 321.893Z" fill="#C2BACE"/>
<path d="M654.638 329.868C654.638 329.868 645.93 334.218 642.059 336.151L641.576 325.034C642.059 324.551 648.349 318.993 648.349 318.993C648.349 318.993 643.511 322.134 641.576 323.584L641.092 310.776L640.85 318.993C639.399 318.026 635.528 315.851 635.528 315.851C635.528 315.851 639.64 319.476 640.85 320.443L640.608 329.143C637.705 327.693 630.69 324.068 630.69 324.068C630.69 324.068 638.915 330.834 640.608 332.043L640.366 340.501C636.254 338.326 627.304 333.976 627.304 333.976C627.304 333.976 637.463 341.709 640.124 343.642L639.64 358.867H643.269L642.543 339.534C644.478 337.117 654.638 329.868 654.638 329.868Z" fill="#B4ACBF"/>
<path d="M554.976 323.584L539.736 349.684H570.215L554.976 323.584Z" fill="#BAB1C5"/>
<path d="M554.974 312.71L540.944 336.634H569.004L554.974 312.71Z" fill="#BAB1C5"/>
<path d="M554.977 304.251L543.607 323.826H566.346L554.977 304.251Z" fill="#BAB1C5"/>
<path d="M554.976 310.293L553.041 358.383H556.911L554.976 310.293Z" fill="#B4ACBF"/>
<path d="M682.94 320.443C682.94 328.418 676.65 334.943 669.151 334.943C661.411 334.943 655.363 328.418 655.363 320.443C655.363 312.468 661.653 305.943 669.151 305.943C676.65 305.943 682.94 312.468 682.94 320.443Z" fill="#BAB1C5"/>
<path d="M680.523 320.443C680.523 320.443 672.298 323.101 669.879 324.068L669.395 310.535L669.153 318.268C667.46 317.301 662.38 314.16 662.38 314.16C662.38 314.16 667.46 318.751 669.153 320.201L668.911 327.451C665.767 325.76 657.784 321.893 657.784 321.893C657.784 321.893 666.734 328.176 668.911 329.626L667.702 358.626H671.33L670.121 326.001C670.605 325.518 680.523 320.443 680.523 320.443Z" fill="#B4ACBF"/>
<path d="M508.29 336.151C508.29 341.467 502.001 345.817 494.502 345.817C486.761 345.817 480.714 341.467 480.714 336.151C480.714 330.834 487.003 326.484 494.502 326.484C502.001 326.484 508.29 330.834 508.29 336.151Z" fill="#BAB1C5"/>
<path d="M510.951 326.001C510.951 332.767 503.452 338.084 494.502 338.084C485.31 338.084 478.053 332.767 478.053 326.001C478.053 319.234 485.552 313.917 494.502 313.917C503.694 313.917 510.951 319.476 510.951 326.001Z" fill="#BAB1C5"/>
<path d="M504.177 315.126C504.177 318.993 499.823 322.134 494.501 322.134C489.179 322.134 484.825 318.993 484.825 315.126C484.825 311.26 489.179 308.118 494.501 308.118C499.823 308.118 504.177 311.26 504.177 315.126Z" fill="#BAB1C5"/>
<path d="M483.133 331.076C483.133 331.076 489.422 334.217 493.292 336.15L493.776 325.034C493.292 324.551 487.003 318.992 487.003 318.992C487.003 318.992 491.841 322.134 493.776 323.584L494.26 310.776L494.502 318.992C495.953 318.026 499.824 315.851 499.824 315.851C499.824 315.851 495.711 319.476 494.502 320.442L494.744 329.142C497.647 327.692 504.662 324.067 504.662 324.067C504.662 324.067 496.437 330.834 494.744 332.042L494.986 340.5C499.098 338.325 505.387 335.184 505.387 335.184C505.387 335.184 497.888 341.467 495.228 343.4L495.711 358.625H492.083L492.809 339.292C490.632 337.117 483.133 331.076 483.133 331.076Z" fill="#B4ACBF"/>
<path d="M47.4768 323.584L32.2373 349.684H62.7163L47.4768 323.584Z" fill="#BAB1C5"/>
<path d="M47.4753 312.71L33.4453 336.634H61.5053L47.4753 312.71Z" fill="#BAB1C5"/>
<path d="M47.4775 304.251L36.1084 323.826H58.8467L47.4775 304.251Z" fill="#BAB1C5"/>
<path d="M47.4772 310.293L45.542 358.383H49.4123L47.4772 310.293Z" fill="#B4ACBF"/>
<path d="M0.791054 336.151C0.791054 341.468 -5.49826 345.817 -12.9971 345.817C-20.7377 345.817 -26.7852 341.468 -26.7852 336.151C-26.7852 330.834 -20.4958 326.484 -12.9971 326.484C-5.49826 326.484 0.791054 330.834 0.791054 336.151Z" fill="#BAB1C5"/>
<path d="M3.45163 326.001C3.45163 332.767 -4.04716 338.084 -12.9973 338.084C-22.1894 338.084 -29.4463 332.767 -29.4463 326.001C-29.4463 319.234 -21.9475 313.918 -12.9973 313.918C-3.80526 313.918 3.45163 319.476 3.45163 326.001Z" fill="#BAB1C5"/>
<path d="M811.387 336.151C811.387 341.467 805.098 345.817 797.599 345.817C790.1 345.817 783.811 341.467 783.811 336.151C783.811 330.834 790.1 326.484 797.599 326.484C805.098 326.484 811.387 330.834 811.387 336.151Z" fill="#BAB1C5"/>
<path d="M814.048 326.001C814.048 332.767 806.549 338.084 797.599 338.084C788.649 338.084 781.15 332.767 781.15 326.001C781.15 319.234 788.649 313.917 797.599 313.917C806.549 313.917 814.048 319.476 814.048 326.001Z" fill="#BAB1C5"/>
<path d="M807.034 315.126C807.034 318.993 802.68 322.134 797.358 322.134C792.037 322.134 787.683 318.993 787.683 315.126C787.683 311.26 792.037 308.118 797.358 308.118C802.68 308.118 807.034 311.26 807.034 315.126Z" fill="#BAB1C5"/>
<path d="M785.988 331.075C785.988 331.075 792.278 334.217 796.148 336.15L796.632 325.034C796.148 324.551 789.859 318.992 789.859 318.992C789.859 318.992 794.697 322.134 796.632 323.584L797.115 310.776L797.357 318.992C798.809 318.026 802.679 315.851 802.679 315.851C802.679 315.851 798.567 319.476 797.357 320.442L797.599 329.142C800.502 327.692 807.517 324.067 807.517 324.067C807.517 324.067 799.293 330.834 797.599 332.042L797.841 340.5C801.953 338.325 808.243 335.184 808.243 335.184C808.243 335.184 800.744 341.467 798.083 343.4L798.567 358.625H794.938L795.664 339.292C793.729 337.117 785.988 331.075 785.988 331.075Z" fill="#B4ACBF"/>
<path d="M857.105 336.151C857.105 341.467 850.816 345.817 843.317 345.817C835.577 345.817 829.529 341.467 829.529 336.151C829.529 330.834 835.819 326.484 843.317 326.484C851.058 326.484 857.105 330.834 857.105 336.151Z" fill="#BAB1C5"/>
<path d="M859.766 326.001C859.766 332.767 852.267 338.084 843.317 338.084C834.125 338.084 826.868 332.767 826.868 326.001C826.868 319.234 834.367 313.917 843.317 313.917C852.509 313.917 859.766 319.476 859.766 326.001Z" fill="#BAB1C5"/>
<path d="M852.992 315.126C852.992 318.993 848.638 322.134 843.317 322.134C837.995 322.134 833.641 318.993 833.641 315.126C833.641 311.26 837.995 308.118 843.317 308.118C848.638 308.118 852.992 311.26 852.992 315.126Z" fill="#BAB1C5"/>
<path d="M831.948 331.076C831.948 331.076 838.238 334.217 842.108 336.15L842.592 325.034C842.108 324.551 835.819 318.992 835.819 318.992C835.819 318.992 840.657 322.134 842.592 323.584L843.075 310.776L843.317 318.992C844.769 318.026 848.639 315.851 848.639 315.851C848.639 315.851 844.527 319.476 843.317 320.442L843.559 329.142C846.462 327.692 853.477 324.067 853.477 324.067C853.477 324.067 845.253 330.834 843.559 332.042L843.801 340.5C847.913 338.325 854.203 335.184 854.203 335.184C854.203 335.184 846.704 341.467 844.043 343.4L844.527 358.625H841.14L841.866 339.292C839.447 337.117 831.948 331.076 831.948 331.076Z" fill="#B4ACBF"/>
<path d="M903.065 336.151C903.065 341.467 896.776 345.817 889.277 345.817C881.537 345.817 875.489 341.467 875.489 336.151C875.489 330.834 881.779 326.484 889.277 326.484C896.776 326.484 903.065 330.834 903.065 336.151Z" fill="#BAB1C5"/>
<path d="M905.726 326.001C905.726 332.767 898.227 338.084 889.277 338.084C880.085 338.084 872.828 332.767 872.828 326.001C872.828 319.234 880.327 313.917 889.277 313.917C898.227 313.917 905.726 319.476 905.726 326.001Z" fill="#BAB1C5"/>
<path d="M898.712 315.126C898.712 318.993 894.358 322.134 889.036 322.134C883.714 322.134 879.36 318.993 879.36 315.126C879.36 311.26 883.714 308.118 889.036 308.118C894.358 308.118 898.712 311.26 898.712 315.126Z" fill="#BAB1C5"/>
<path d="M877.666 331.076C877.666 331.076 883.955 334.217 887.826 336.15L888.309 325.034C887.826 324.551 881.536 318.992 881.536 318.992C881.536 318.992 886.374 322.134 888.309 323.584L888.793 310.776L889.035 318.992C890.487 318.026 894.357 315.851 894.357 315.851C894.357 315.851 890.245 319.476 889.035 320.442L889.277 329.142C892.18 327.692 899.195 324.067 899.195 324.067C899.195 324.067 890.97 330.834 889.277 332.042L889.519 340.5C893.631 338.325 899.921 335.184 899.921 335.184C899.921 335.184 892.422 341.467 889.761 343.4L890.245 358.625H886.616L887.342 339.292C885.407 337.117 877.666 331.076 877.666 331.076Z" fill="#B4ACBF"/>
<path d="M948.78 336.151C948.78 341.467 942.491 345.817 934.992 345.817C927.251 345.817 921.204 341.467 921.204 336.151C921.204 330.834 927.493 326.484 934.992 326.484C942.491 326.484 948.78 330.834 948.78 336.151Z" fill="#BAB1C5"/>
<path d="M951.441 326.001C951.441 332.767 943.942 338.084 934.992 338.084C925.8 338.084 918.543 332.767 918.543 326.001C918.543 319.234 926.042 313.917 934.992 313.917C944.184 313.917 951.441 319.476 951.441 326.001Z" fill="#BAB1C5"/>
<path d="M944.667 315.126C944.667 318.993 940.313 322.134 934.991 322.134C929.67 322.134 925.315 318.993 925.315 315.126C925.315 311.26 929.67 308.118 934.991 308.118C940.313 308.118 944.667 311.26 944.667 315.126Z" fill="#BAB1C5"/>
<path d="M923.381 331.076C923.381 331.076 929.67 334.217 933.541 336.15L934.024 325.034C933.54 324.551 927.251 318.992 927.251 318.992C927.251 318.992 932.089 322.134 934.024 323.584L934.508 310.776L934.75 318.992C936.201 318.026 940.072 315.851 940.072 315.851C940.072 315.851 935.96 319.476 934.75 320.442L934.992 329.142C937.895 327.692 944.91 324.067 944.91 324.067C944.91 324.067 936.685 330.834 934.992 332.042L935.234 340.5C939.346 338.325 945.635 335.184 945.635 335.184C945.635 335.184 938.137 341.467 935.476 343.4L935.96 358.625H932.331L933.057 339.292C931.122 337.117 923.381 331.076 923.381 331.076Z" fill="#B4ACBF"/>
<path d="M994.502 336.151C994.502 341.468 988.213 345.818 980.714 345.818C972.973 345.818 966.926 341.468 966.926 336.151C966.926 330.835 973.215 326.485 980.714 326.485C988.455 326.485 994.502 330.835 994.502 336.151Z" fill="#BAB1C5"/>
<path d="M997.405 326.001C997.405 332.768 989.906 338.084 980.956 338.084C971.764 338.084 964.507 332.768 964.507 326.001C964.507 319.235 972.006 313.918 980.956 313.918C989.906 313.918 997.405 319.476 997.405 326.001Z" fill="#BAB1C5"/>
<path d="M990.391 315.126C990.391 318.993 986.037 322.135 980.715 322.135C975.393 322.135 971.039 318.993 971.039 315.126C971.039 311.26 975.393 308.118 980.715 308.118C986.037 308.118 990.391 311.26 990.391 315.126Z" fill="#BAB1C5"/>
<path d="M969.345 331.076C969.345 331.076 975.634 334.217 979.504 336.151L979.988 325.034C979.504 324.551 973.215 318.993 973.215 318.993C973.215 318.993 978.053 322.134 979.988 323.584L980.472 310.776L980.714 318.993C982.165 318.026 986.035 315.851 986.035 315.851C986.035 315.851 981.923 319.476 980.714 320.443L980.956 329.142C983.858 327.693 990.873 324.068 990.873 324.068C990.873 324.068 982.649 330.834 980.956 332.042L981.198 340.501C985.31 338.326 991.599 335.184 991.599 335.184C991.599 335.184 984.1 341.467 981.439 343.401L981.923 358.625H978.295L979.021 339.292C976.843 337.117 969.345 331.076 969.345 331.076Z" fill="#B4ACBF"/>
<path d="M542.155 298.452C542.155 303.768 537.317 308.118 531.27 308.118C525.223 308.118 520.385 303.768 520.385 298.452C520.385 293.135 525.223 288.785 531.27 288.785C537.317 288.785 542.155 293.135 542.155 298.452Z" fill="#CFC6DC"/>
<path d="M549.653 311.743C549.653 318.993 541.429 325.034 531.269 325.034C521.109 325.034 512.885 318.993 512.885 311.743C512.885 304.493 521.109 298.452 531.269 298.452C541.429 298.452 549.653 304.493 549.653 311.743Z" fill="#CFC6DC"/>
<path d="M516.029 307.876C516.029 307.876 526.915 311.501 530.301 312.468L531.027 294.585L531.511 304.735C533.688 303.285 540.461 299.418 540.461 299.418C540.461 299.418 533.688 305.701 531.753 307.393L532.236 317.06C536.349 314.885 546.992 309.568 546.992 309.568C546.992 309.568 535.139 317.785 532.236 319.718L533.688 358.142H528.85L530.543 315.126C529.092 314.643 516.029 307.876 516.029 307.876Z" fill="#B4ACBF"/>
<path d="M152.699 298.452C152.699 303.769 147.861 308.118 141.814 308.118C135.767 308.118 130.929 303.769 130.929 298.452C130.929 293.135 135.767 288.786 141.814 288.786C147.861 288.786 152.699 293.135 152.699 298.452Z" fill="#CFC6DC"/>
<path d="M160.44 311.743C160.44 318.993 152.216 325.035 142.056 325.035C131.896 325.035 123.672 318.993 123.672 311.743C123.672 304.493 131.896 298.452 142.056 298.452C152.216 298.452 160.44 304.493 160.44 311.743Z" fill="#CFC6DC"/>
<path d="M126.574 307.877C126.574 307.877 137.46 311.502 140.846 312.468L141.572 294.585L142.056 304.735C144.233 303.285 151.006 299.419 151.006 299.419C151.006 299.419 144.233 305.702 142.297 307.393L142.781 317.06C146.894 314.885 157.537 309.568 157.537 309.568C157.537 309.568 145.684 317.785 142.781 319.718L144.233 358.142H139.395L141.088 315.127C139.879 314.643 126.574 307.877 126.574 307.877Z" fill="#B4ACBF"/>
<path d="M1466.29 453.104H-77.0088V550.735H1466.29V453.104Z" fill="#EADFF8"/>
<path d="M494.352 588.676C494.352 598.1 486.853 605.592 477.419 605.592H133.926C124.492 605.592 116.993 598.1 116.993 588.676C116.993 579.251 124.492 571.759 133.926 571.759H477.661C486.853 571.759 494.352 579.251 494.352 588.676Z" fill="#EADFF8"/>
<path d="M692.465 609.217C692.465 616.95 686.175 623.233 678.434 623.233H538.86C531.119 623.233 524.83 616.95 524.83 609.217C524.83 601.484 531.119 595.2 538.86 595.2H678.434C686.175 594.959 692.465 601.242 692.465 609.217Z" fill="#EADFF8"/>
<path d="M693.191 573.934C693.191 576.834 690.772 579.251 687.869 579.251H663.921C661.019 579.251 658.6 576.834 658.6 573.934C658.6 571.034 661.019 568.617 663.921 568.617H687.869C690.772 568.617 693.191 571.034 693.191 573.934Z" fill="#EADFF8"/>
<path d="M177.71 623.233C177.71 626.858 174.565 630 170.937 630H150.133C146.505 630 143.36 626.858 143.36 623.233C143.36 619.609 146.505 616.467 150.133 616.467H170.937C174.807 616.467 177.71 619.609 177.71 623.233Z" fill="#EADFF8"/>
<path d="M82.8877 574.9C82.8877 577.8 80.7106 579.975 77.8078 579.975H67.6482C64.7454 579.975 62.5684 577.8 62.5684 574.9C62.5684 572.001 64.7454 569.826 67.6482 569.826H77.8078C80.4687 569.826 82.8877 572.001 82.8877 574.9Z" fill="#EADFF8"/>
<path d="M997.497 599.067C997.497 608.733 989.514 616.708 979.838 616.708H791.643C781.967 616.708 773.984 608.733 773.984 599.067C773.984 589.4 781.967 581.426 791.643 581.426H979.838C989.756 581.426 997.497 589.4 997.497 599.067Z" fill="#EADFF8"/>
<path d="M1068.86 605.592C1068.86 609.458 1065.71 612.6 1061.84 612.6H1038.86C1034.99 612.6 1031.85 609.458 1031.85 605.592C1031.85 601.725 1034.99 598.583 1038.86 598.583H1061.84C1065.71 598.583 1068.86 601.725 1068.86 605.592Z" fill="#EADFF8"/>
<path d="M1335.91 586.984C1335.91 593.75 1330.59 599.067 1323.82 599.067H1275.68C1268.91 599.067 1263.58 593.75 1263.58 586.984C1263.58 580.217 1268.91 574.901 1275.68 574.901H1323.82C1330.59 574.901 1335.91 580.217 1335.91 586.984Z" fill="#EADFF8"/>
<path d="M108.77 616.708C108.77 623.474 103.449 628.791 96.6756 628.791H48.5382C41.7651 628.791 36.4434 623.474 36.4434 616.708C36.4434 609.941 41.7651 604.625 48.5382 604.625H96.6756C103.207 604.625 108.77 610.183 108.77 616.708Z" fill="#EADFF8"/>
<path d="M1522.65 592.783C1522.65 599.792 1516.85 605.592 1509.83 605.592H1403.88C1396.87 605.592 1391.06 599.792 1391.06 592.783C1391.06 585.775 1396.87 579.975 1403.88 579.975H1509.83C1517.09 579.975 1522.65 585.775 1522.65 592.783Z" fill="#EADFF8"/>
</svg>
