<svg width="93" height="395" viewBox="0 0 93 395" fill="none" xmlns="http://www.w3.org/2000/svg">
<path opacity="0.2" d="M114.785 389.071C114.785 392.212 111.398 394.871 107.044 394.871H46.8119C42.6996 394.871 39.0713 392.212 39.0713 389.071C39.0713 385.929 42.4577 383.271 46.8119 383.271H107.044C111.398 383.271 114.785 385.929 114.785 389.071Z" fill="#9892A2"/>
<path d="M79.9514 320.439H73.4202V111.402C73.4202 89.4107 64.9539 68.8695 49.4726 53.4032L29.1533 32.862L33.7494 28.2704L54.0685 48.8116C70.7593 65.4862 79.9514 87.7191 79.9514 111.402V320.439Z" fill="#A59DAF"/>
<path d="M79.9512 320.439H73.4199V111.402C73.4199 87.7191 82.612 65.4862 99.3029 48.8116L119.622 28.2704L124.218 32.862L103.899 53.4032C88.4176 68.8695 79.9512 89.4107 79.9512 111.402V320.439Z" fill="#A59DAF"/>
<path d="M39.3125 31.4121L31.8138 38.9036C29.3948 41.3202 25.7664 41.3202 23.3475 38.9036L2.3025 17.8791C-0.116458 15.4624 -0.116458 11.8375 2.3025 9.4209L9.8012 1.9294C12.2202 -0.48721 15.8486 -0.48721 18.2676 1.9294L39.3125 22.9539C41.7315 25.1289 41.7315 28.9955 39.3125 31.4121Z" fill="#A59DAF"/>
<path d="M32.298 32.1373L27.9438 36.4872C26.4924 37.9372 24.0736 37.4539 22.1384 35.5206L5.6892 19.0876C3.99591 17.396 3.51221 14.7377 4.72169 13.2877L9.07583 8.9378C10.5272 7.48783 12.9463 7.97116 14.8814 9.90445L31.3305 26.3374C33.2656 28.0291 33.5075 30.6873 32.298 32.1373Z" fill="white"/>
<path d="M89.385 378.921H64.2275L68.098 291.198C68.3399 288.299 70.5169 286.124 73.4196 286.124H80.1929C83.0957 286.124 85.2727 288.299 85.5146 291.198L89.385 378.921Z" fill="#A59DAF"/>
<path d="M96.8849 387.863H56.4883V383.996C56.4883 381.096 58.9073 378.68 61.81 378.68H91.8051C94.7079 378.68 97.1269 381.096 97.1269 383.996V387.863H96.8849Z" fill="#A59DAF"/>
</svg>
