<svg width="216" height="564" viewBox="0 0 216 564" fill="none" xmlns="http://www.w3.org/2000/svg">
<path d="M163.319 554.975C163.319 559.567 158.481 563.192 152.434 563.192H66.8023C60.7549 563.192 55.917 559.567 55.917 554.975C55.917 550.384 60.7549 546.759 66.8023 546.759H152.434C158.481 546.759 163.319 550.384 163.319 554.975Z" fill="#EADFF8"/>
<path d="M113.732 457.345H104.298V159.618C104.298 128.444 92.2032 99.2026 70.1906 76.9697L41.1631 47.7287L47.6942 41.2039L76.7218 70.4449C100.428 94.3693 113.49 126.027 113.49 159.618V457.345H113.732Z" fill="#3C3C3B"/>
<path d="M113.731 457.345H104.297V159.618C104.297 126.027 117.359 94.3693 141.065 70.4449L170.093 41.2039L176.624 47.7287L147.596 76.9697C125.584 98.9609 113.489 128.444 113.489 159.618V457.345H113.731Z" fill="#3C3C3B"/>
<path d="M55.9182 45.3114L45.2747 55.9445C41.8881 59.3278 36.5664 59.3278 33.4218 55.9445L3.42663 26.2202C0.0400808 22.837 0.0400808 17.5204 3.42663 14.3788L14.0701 3.7457C17.4566 0.362437 22.7783 0.362437 25.923 3.7457L55.9182 33.7117C59.3048 36.8533 59.3048 42.1698 55.9182 45.3114Z" fill="#3C3C3B"/>
<path d="M45.7597 46.5205L39.4704 52.8037C37.5352 54.737 33.9068 54.2537 31.2459 51.5954L7.78205 28.1543C5.1212 25.496 4.63741 21.871 6.57257 19.9378L12.8619 13.6546C14.797 11.7213 18.4255 12.2046 21.0863 14.8629L44.5502 38.304C47.2111 40.9623 47.6948 44.5872 45.7597 46.5205Z" fill="#FFF5C4"/>
<path d="M160.176 45.3119L170.819 55.945C174.206 59.3282 179.527 59.3282 182.672 55.945L212.667 25.979C216.054 22.5957 216.054 17.2792 212.667 14.1376L202.024 3.50448C198.637 0.121226 193.316 0.121226 190.171 3.50448L160.176 33.4705C156.789 36.8537 156.789 42.1703 160.176 45.3119Z" fill="#3C3C3B"/>
<path d="M170.333 46.5205L176.623 52.8037C178.558 54.737 182.186 54.2537 184.847 51.5954L208.311 28.1543C210.972 25.496 211.456 21.871 209.521 19.9378L203.231 13.6546C201.296 11.7213 197.668 12.2046 195.007 14.8629L171.543 38.304C168.882 40.9623 168.398 44.5872 170.333 46.5205Z" fill="#FFF5C4"/>
<path d="M127.035 540.476H91.2344L96.798 415.537C97.0399 411.428 100.185 408.287 104.297 408.287H113.731C117.843 408.287 120.988 411.428 121.23 415.537L127.035 540.476Z" fill="#3C3C3B"/>
<path d="M137.92 553.526H80.3486V547.968C80.3486 543.859 83.7352 540.476 87.8474 540.476H130.421C134.533 540.476 137.92 543.859 137.92 547.968V553.526Z" fill="#3C3C3B"/>
</svg>
