<svg width="89" height="128" viewBox="0 0 89 128" fill="none" xmlns="http://www.w3.org/2000/svg">
<path d="M74.7417 12.6276L75.9511 11.4194L78.1282 9.96938L83.6918 9.48607C84.4175 9.48607 85.1431 9.00275 85.1431 8.27777L87.0783 8.0361C88.0459 8.0361 88.7716 7.06945 88.5297 6.10281C88.5297 5.86115 88.2878 5.61952 88.2878 5.37786C88.7716 4.89454 88.7716 4.16956 88.5297 3.44458C88.0459 2.23628 86.8364 1.51131 85.8688 1.75297L78.1282 3.92789C77.8863 3.92789 77.8863 3.92789 77.8863 3.92789C77.8863 3.92789 77.8863 3.92789 77.6444 3.92789C77.6444 3.92789 77.6444 3.92789 77.4025 3.92789C77.4025 3.92789 77.4025 3.9279 77.1606 4.16956L71.597 9.24439C70.8713 9.96937 70.8713 11.1777 71.597 12.1443C72.5646 13.1109 74.016 13.3526 74.7417 12.6276Z" fill="#FFAE80"/>
<path d="M68.2119 31.7192L71.5985 28.3359C72.3242 27.611 73.0499 26.6443 73.5337 25.436L74.7431 22.5361C74.985 22.2944 74.985 21.8111 75.2269 21.5694L80.0649 16.7362C80.7906 16.0112 80.7906 14.8029 79.823 13.8363C78.8554 13.1113 77.6459 12.8696 76.9202 13.5946L73.7755 16.9778L74.985 12.3863L79.0973 6.8281L85.6285 3.92817C86.5961 3.44485 86.838 2.23653 86.3542 1.26989C85.6285 0.303244 84.419 -0.180078 83.4514 0.0615834L75.7107 3.6865C75.7107 3.6865 71.5985 7.55309 70.389 8.76139C70.1471 9.00305 69.9052 9.48636 69.6633 9.72802C68.4538 11.4196 65.551 16.0112 64.3415 20.6028L61.6807 26.161L68.2119 31.7192Z" fill="#FFAE80"/>
<path d="M2.66723 104.615C5.3281 100.265 8.95654 97.365 12.8269 93.4984C13.0688 93.2567 13.5526 92.7734 13.7945 92.5318C19.1162 86.9735 30.4853 76.0988 30.4853 76.0988C30.4853 76.0988 53.4655 37.433 62.4157 21L72.8173 39.1246C65.8023 53.8659 54.4331 81.8986 49.8371 87.9402C41.3707 99.0566 31.4529 109.931 22.2609 121.289C19.6 124.431 15.2459 127.089 11.1336 127.814C9.92413 128.056 8.95654 128.056 7.98895 127.814C4.3605 127.089 1.94155 124.189 0.973962 120.323C-0.719314 115.248 -0.235529 109.448 2.66723 104.615Z" fill="#EA4A49"/>
</svg>
