<svg width="168" height="85" viewBox="0 0 168 85" fill="none" xmlns="http://www.w3.org/2000/svg">
<g filter="url(#filter0_d_1929_1563)">
<path d="M149 0H19C10.7157 0 4 6.71573 4 15V42C4 50.2843 10.7157 57 19 57H28L48 77L68 57H149C157.284 57 164 50.2843 164 42V15C164 6.71573 157.284 0 149 0Z" fill="white"/>
<path d="M24.6484 23.6016C23.7526 23.6016 22.8828 23.7995 22.0391 24.1953L21.4766 23.0703C22.3724 22.6328 23.4349 22.4141 24.6641 22.4141C25.7943 22.4141 26.7656 22.6432 27.5781 23.1016C28.3958 23.5599 29.0156 24.2135 29.4375 25.0625C29.8594 25.9115 30.0703 26.9115 30.0703 28.0625C30.0703 30.0208 29.5964 31.526 28.6484 32.5781C27.7005 33.6302 26.3359 34.1562 24.5547 34.1562C23.3724 34.1562 22.375 34.0078 21.5625 33.7109V32.5469C21.9948 32.6562 22.4349 32.7552 22.8828 32.8438C23.3307 32.9323 23.8125 32.9766 24.3281 32.9766C25.7396 32.9766 26.8047 32.6016 27.5234 31.8516C28.2422 31.0964 28.6224 30.0104 28.6641 28.5938H23.0469V27.4062H28.6484C28.5339 26.2135 28.1224 25.2812 27.4141 24.6094C26.7109 23.9375 25.7891 23.6016 24.6484 23.6016ZM33.6719 25.4375V30.8672L33.6172 32.2891L33.5938 32.7344L38.2266 25.4375H39.8438V34H38.6328V28.7656L38.6562 27.7344L38.6953 26.7188L34.0703 34H32.4531V25.4375H33.6719ZM36.1172 24.3047C35.1536 24.3047 34.4505 24.1198 34.0078 23.75C33.5651 23.375 33.3177 22.7604 33.2656 21.9062H34.4844C34.5312 22.4479 34.6719 22.8255 34.9062 23.0391C35.1458 23.2526 35.5599 23.3594 36.1484 23.3594C36.6849 23.3594 37.0807 23.2448 37.3359 23.0156C37.5964 22.7865 37.7552 22.4167 37.8125 21.9062H39.0391C38.9766 22.7292 38.7135 23.3359 38.25 23.7266C37.7865 24.112 37.0755 24.3047 36.1172 24.3047ZM43.9531 32.1406L44.0703 32.3203C43.9349 32.8411 43.7396 33.4453 43.4844 34.1328C43.2292 34.8255 42.9635 35.4688 42.6875 36.0625H41.7109C41.8516 35.5208 42.0052 34.8516 42.1719 34.0547C42.3438 33.2578 42.4635 32.6198 42.5312 32.1406H43.9531ZM56.4453 26.5469H53.6641V34H52.3672V26.5469H49.6172V25.4375H56.4453V26.5469ZM63.4062 34L63.1484 32.7812H63.0859C62.6589 33.3177 62.2318 33.6823 61.8047 33.875C61.3828 34.0625 60.8542 34.1562 60.2188 34.1562C59.3698 34.1562 58.7031 33.9375 58.2188 33.5C57.7396 33.0625 57.5 32.4401 57.5 31.6328C57.5 29.9036 58.8828 28.9974 61.6484 28.9141L63.1016 28.8672V28.3359C63.1016 27.6641 62.9557 27.1693 62.6641 26.8516C62.3776 26.5286 61.9167 26.3672 61.2812 26.3672C60.5677 26.3672 59.7604 26.5859 58.8594 27.0234L58.4609 26.0312C58.8828 25.8021 59.3438 25.6224 59.8438 25.4922C60.349 25.362 60.8542 25.2969 61.3594 25.2969C62.3802 25.2969 63.1354 25.5234 63.625 25.9766C64.1198 26.4297 64.3672 27.1562 64.3672 28.1562V34H63.4062ZM60.4766 33.0859C61.2839 33.0859 61.9167 32.8646 62.375 32.4219C62.8385 31.9792 63.0703 31.3594 63.0703 30.5625V29.7891L61.7734 29.8438C60.7422 29.8802 59.9974 30.0417 59.5391 30.3281C59.0859 30.6094 58.8594 31.0495 58.8594 31.6484C58.8594 32.1172 59 32.474 59.2812 32.7188C59.5677 32.9635 59.9661 33.0859 60.4766 33.0859ZM72.0391 25.4375H73.4609L69.7656 29.5703L73.7656 34H72.25L68.3438 29.6641V34H67.0469V25.4375H68.3438V29.6016L72.0391 25.4375ZM78.7812 34.1562C77.5417 34.1562 76.5807 33.776 75.8984 33.0156C75.2214 32.25 74.8828 31.1693 74.8828 29.7734C74.8828 28.3411 75.2266 27.2344 75.9141 26.4531C76.6068 25.6719 77.5911 25.2812 78.8672 25.2812C79.2786 25.2812 79.6901 25.3255 80.1016 25.4141C80.513 25.5026 80.8359 25.6068 81.0703 25.7266L80.6719 26.8281C80.3854 26.7135 80.0729 26.6198 79.7344 26.5469C79.3958 26.4688 79.0964 26.4297 78.8359 26.4297C77.0964 26.4297 76.2266 27.5391 76.2266 29.7578C76.2266 30.8099 76.4375 31.6172 76.8594 32.1797C77.2865 32.7422 77.9167 33.0234 78.75 33.0234C79.4635 33.0234 80.1953 32.8698 80.9453 32.5625V33.7109C80.3724 34.0078 79.651 34.1562 78.7812 34.1562ZM84.2031 25.4375V30.8672L84.1484 32.2891L84.125 32.7344L88.7578 25.4375H90.375V34H89.1641V28.7656L89.1875 27.7344L89.2266 26.7188L84.6016 34H82.9844V25.4375H84.2031ZM94.4844 32.1406L94.6016 32.3203C94.4661 32.8411 94.2708 33.4453 94.0156 34.1328C93.7604 34.8255 93.4948 35.4688 93.2188 36.0625H92.2422C92.3828 35.5208 92.5365 34.8516 92.7031 34.0547C92.875 33.2578 92.9948 32.6198 93.0625 32.1406H94.4844ZM106.977 26.5469H104.195V34H102.898V26.5469H100.148V25.4375H106.977V26.5469ZM113.938 34L113.68 32.7812H113.617C113.19 33.3177 112.763 33.6823 112.336 33.875C111.914 34.0625 111.385 34.1562 110.75 34.1562C109.901 34.1562 109.234 33.9375 108.75 33.5C108.271 33.0625 108.031 32.4401 108.031 31.6328C108.031 29.9036 109.414 28.9974 112.18 28.9141L113.633 28.8672V28.3359C113.633 27.6641 113.487 27.1693 113.195 26.8516C112.909 26.5286 112.448 26.3672 111.812 26.3672C111.099 26.3672 110.292 26.5859 109.391 27.0234L108.992 26.0312C109.414 25.8021 109.875 25.6224 110.375 25.4922C110.88 25.362 111.385 25.2969 111.891 25.2969C112.911 25.2969 113.667 25.5234 114.156 25.9766C114.651 26.4297 114.898 27.1562 114.898 28.1562V34H113.938ZM111.008 33.0859C111.815 33.0859 112.448 32.8646 112.906 32.4219C113.37 31.9792 113.602 31.3594 113.602 30.5625V29.7891L112.305 29.8438C111.273 29.8802 110.529 30.0417 110.07 30.3281C109.617 30.6094 109.391 31.0495 109.391 31.6484C109.391 32.1172 109.531 32.474 109.812 32.7188C110.099 32.9635 110.497 33.0859 111.008 33.0859ZM122.57 25.4375H123.992L120.297 29.5703L124.297 34H122.781L118.875 29.6641V34H117.578V25.4375H118.875V29.6016L122.57 25.4375ZM129.312 34.1562C128.073 34.1562 127.112 33.776 126.43 33.0156C125.753 32.25 125.414 31.1693 125.414 29.7734C125.414 28.3411 125.758 27.2344 126.445 26.4531C127.138 25.6719 128.122 25.2812 129.398 25.2812C129.81 25.2812 130.221 25.3255 130.633 25.4141C131.044 25.5026 131.367 25.6068 131.602 25.7266L131.203 26.8281C130.917 26.7135 130.604 26.6198 130.266 26.5469C129.927 26.4688 129.628 26.4297 129.367 26.4297C127.628 26.4297 126.758 27.5391 126.758 29.7578C126.758 30.8099 126.969 31.6172 127.391 32.1797C127.818 32.7422 128.448 33.0234 129.281 33.0234C129.995 33.0234 130.727 32.8698 131.477 32.5625V33.7109C130.904 34.0078 130.182 34.1562 129.312 34.1562ZM134.734 25.4375V30.8672L134.68 32.2891L134.656 32.7344L139.289 25.4375H140.906V34H139.695V28.7656L139.719 27.7344L139.758 26.7188L135.133 34H133.516V25.4375H134.734ZM144.828 30.8516H144.008L143.609 22.5781H145.227L144.828 30.8516ZM143.469 33.1719C143.469 32.4635 143.781 32.1094 144.406 32.1094C144.708 32.1094 144.94 32.2005 145.102 32.3828C145.268 32.5651 145.352 32.8281 145.352 33.1719C145.352 33.5052 145.268 33.7656 145.102 33.9531C144.935 34.1354 144.703 34.2266 144.406 34.2266C144.135 34.2266 143.911 34.1458 143.734 33.9844C143.557 33.8177 143.469 33.5469 143.469 33.1719Z" fill="#1E0606"/>
</g>
<defs>
<filter id="filter0_d_1929_1563" x="0" y="0" width="168" height="85" filterUnits="userSpaceOnUse" color-interpolation-filters="sRGB">
<feFlood flood-opacity="0" result="BackgroundImageFix"/>
<feColorMatrix in="SourceAlpha" type="matrix" values="0 0 0 0 0 0 0 0 0 0 0 0 0 0 0 0 0 0 127 0" result="hardAlpha"/>
<feOffset dy="4"/>
<feGaussianBlur stdDeviation="2"/>
<feColorMatrix type="matrix" values="0 0 0 0 0 0 0 0 0 0 0 0 0 0 0 0 0 0 0.25 0"/>
<feBlend mode="normal" in2="BackgroundImageFix" result="effect1_dropShadow_1929_1563"/>
<feBlend mode="normal" in="SourceGraphic" in2="effect1_dropShadow_1929_1563" result="shape"/>
</filter>
</defs>
</svg>
