<svg width="205" height="353" viewBox="0 0 205 353" fill="none" xmlns="http://www.w3.org/2000/svg">
<path d="M130.625 165.165C131.35 166.373 131.109 168.548 131.109 169.998C130.625 174.106 129.657 176.281 128.206 179.664C126.512 183.531 117.804 178.698 117.562 177.973C117.32 177.248 117.562 176.281 118.288 175.798C119.981 174.589 122.4 176.764 123.852 175.314C124.335 174.831 124.335 174.106 124.577 173.381C124.819 171.689 124.335 169.515 122.884 168.79C121.916 168.306 120.465 168.548 119.256 168.548C116.111 168.79 111.757 165.89 110.547 162.99C109.338 160.09 111.757 157.431 114.176 155.498C115.143 154.532 116.595 154.048 118.046 154.29C118.772 154.532 129.657 163.715 130.625 165.165Z" fill="#FFAE80"/>
<path d="M13.0625 349.069C13.0625 349.31 13.0625 349.794 13.0625 350.035H37.9778V349.552C37.9778 349.31 37.9778 349.31 37.9778 349.069V348.827C37.7359 347.619 37.494 346.41 37.2522 345.444C36.0427 341.577 33.1399 340.369 29.7534 339.886C28.5439 339.644 27.3344 339.644 25.883 339.644H24.9154C19.1099 339.644 14.272 340.127 13.3044 346.169C13.0625 347.377 13.0625 348.102 13.0625 349.069Z" fill="#212121"/>
<path d="M12.8193 349.069L13.0612 350.277V352.935H37.9766L37.7347 350.277V349.794V349.31V349.069H12.8193Z" fill="#1D1715"/>
<path d="M65.7967 347.619C65.7967 348.102 65.7967 348.585 65.7967 349.069V350.035H105.952C105.952 349.552 105.952 349.31 105.71 349.069C104.5 343.269 97.2433 340.369 89.2607 339.161C82.9714 338.194 76.4401 338.436 71.3603 339.161C69.667 339.402 68.2156 339.644 67.0061 340.127C66.5224 340.369 65.3129 340.611 65.7967 347.619Z" fill="#1D1715"/>
<path d="M65.7969 349.069V350.035L66.0388 352.935H106.194L105.952 350.035V349.069H65.7969Z" fill="#16191E"/>
<path d="M11.1269 344.236C11.1269 345.202 11.8525 345.927 13.3039 346.411C15.481 347.135 19.1094 347.377 22.9798 347.377C23.7055 347.377 24.4312 347.377 25.1569 347.135C29.2691 346.894 33.6232 346.169 37.0098 345.444C38.2193 345.202 39.1869 344.961 39.9125 344.719L42.0896 284.062V281.645L43.0572 254.096L51.0398 200.93V199.722L59.7481 252.646L59.99 253.613C59.99 266.421 59.5062 279.954 59.2643 293.487C59.0224 314.511 59.5062 334.569 63.8603 348.344C64.1022 348.102 64.3441 348.102 64.586 348.102C64.8279 347.86 65.3117 347.86 65.5536 347.619C67.4888 346.894 69.6658 346.169 72.0848 345.685C77.8903 343.994 84.6634 342.544 89.5013 339.161V338.919L87.0824 255.304L84.4215 209.147L83.9377 202.38L83.212 188.122V187.639L82.7282 178.698L82.0026 167.339L81.7607 161.781V159.606L81.5187 155.981L81.2769 152.357L81.035 148.007H13.062C12.8201 149.698 12.8201 151.148 12.8201 152.84C12.8201 154.048 12.8201 155.015 12.8201 156.223C12.8201 160.331 13.062 164.198 13.3039 168.064C13.3039 168.789 13.5458 169.273 13.5458 169.998C14.0296 173.864 14.7553 177.731 15.481 181.356C15.7229 182.564 15.9648 183.531 16.2067 184.739C16.6905 186.431 17.1743 188.122 17.6581 189.814C17.6581 191.022 17.4162 192.231 17.4162 193.681C17.4162 195.372 17.1743 196.822 17.1743 198.514L16.9324 205.28C16.9324 207.455 16.6905 209.63 16.6905 211.564C15.9648 225.58 15.481 239.113 15.481 249.263C15.481 250.229 15.481 251.196 15.481 252.163C15.481 256.029 15.2391 262.071 14.7553 269.562C12.8201 293.97 8.9498 332.152 11.1269 344.236Z" fill="#5E4A4C"/>
<path opacity="0.3" d="M13.3047 169.998C13.7885 173.865 14.5142 177.731 15.2399 181.356C15.4818 182.564 15.7237 183.531 15.9656 184.739C16.4494 186.431 16.9331 188.123 17.4169 189.814C17.175 192.714 17.175 195.614 16.9331 198.272L16.6912 205.039C16.6912 207.214 16.4493 209.389 16.4493 211.322C22.9806 210.839 30.9631 210.839 39.4295 211.08C42.5742 217.122 42.0904 224.614 41.3647 231.622C41.1228 234.522 40.8809 237.663 39.6714 240.322C38.4619 242.98 36.5267 245.638 33.8659 246.605C36.7686 249.263 38.4619 253.13 39.1876 256.754C39.9133 260.621 39.9133 264.488 40.3971 268.354C40.639 273.671 41.3647 278.987 42.0904 284.062V281.646L43.058 254.096L51.0405 200.931V199.722L59.7488 252.646L59.9907 253.613C59.9907 266.421 59.5069 280.196 59.265 293.487C59.265 293.729 59.265 293.97 59.265 294.212C59.7488 289.137 60.2326 284.062 60.4745 278.746C60.4745 276.329 60.7164 273.912 61.4421 271.738C61.9259 270.288 62.6516 268.838 63.1354 267.388C64.8286 262.071 64.3448 256.03 67.2476 251.196C67.4895 250.713 67.7314 250.23 67.7314 249.746C67.7314 249.263 67.4895 248.538 67.4895 248.055C63.1354 236.455 61.684 223.647 62.8935 211.322C71.1179 211.322 78.6167 210.597 84.6641 209.147L84.1803 202.381L83.2128 187.639L82.729 178.698L82.0033 167.34C69.9085 167.098 57.5717 169.031 45.4769 169.515C34.5916 170.481 23.9481 169.998 13.3047 169.998Z" fill="#1D1D1B"/>
<path d="M41.1211 45.542L47.8942 44.5753L48.8618 51.1002L41.6049 50.8586L41.1211 45.542Z" fill="#EBB677"/>
<path d="M21.2857 51.342L20.0762 30.0758C29.2683 29.8341 41.3631 29.1092 43.5402 28.6259C43.5402 28.6259 44.5078 44.0922 45.4754 50.617C49.5876 67.5333 29.5102 69.9499 21.2857 51.342Z" fill="#FFAE80"/>
<path d="M17.4167 33.9428C15.2396 30.0762 14.9977 28.143 14.0301 23.7931C11.6111 3.25187 23.706 4.2185 31.4467 3.01019C40.3968 2.04355 49.8308 6.87676 52.2498 20.4098C52.0079 21.8598 51.5241 23.0681 51.5241 23.0681L55.6363 30.3179C56.362 31.5262 55.8782 32.9762 54.4268 33.4595L52.4917 34.1845C52.7336 35.6344 53.7012 41.4343 53.7012 41.4343C54.1849 44.8176 53.4593 50.6174 48.6213 50.8591C46.6862 50.6174 42.0901 47.4758 39.6712 35.1511C36.5265 35.3928 19.1099 36.8428 17.4167 33.9428Z" fill="#FFAE80"/>
<path d="M21.046 42.884C45.4776 45.5423 39.1883 34.4258 39.4302 32.0092C39.4302 31.2842 43.3005 31.2842 43.3005 30.5592C43.0586 17.9929 37.9788 10.2597 48.1385 10.2597C51.7669 9.0514 52.2507 -3.27331 29.0286 0.834931C18.869 2.76822 11.6121 9.53472 11.3702 19.9262C10.8864 30.0759 16.6919 41.434 21.046 42.884Z" fill="black"/>
<path d="M34.1074 30.3179C34.5912 33.4595 37.252 36.8428 38.9453 36.6011C40.6386 36.3595 40.1548 33.7012 39.671 30.3179C39.4291 28.1429 38.9453 25.243 37.2521 24.7596C35.5588 24.7596 33.3817 25.7263 34.1074 30.3179Z" fill="#FFAE80"/>
<path d="M0 75.5083C0 75.9917 0 76.475 0 76.9583V77.2L1.20948 92.9079V93.3913C1.20948 93.3913 7.25691 149.457 5.07984 184.981C4.83795 190.056 9.19207 194.406 14.5138 193.681C15.4814 193.681 16.2071 193.439 17.1747 193.439C26.3667 192.714 38.9454 193.681 51.524 195.131C55.1524 195.614 59.0228 196.097 62.6512 196.581C71.3595 197.789 79.584 191.506 80.0678 182.564V182.323C80.0678 182.081 80.0678 181.839 80.0678 181.598C80.7935 175.314 81.0354 168.79 81.0354 161.781V159.607C81.0354 157.673 81.0354 155.982 81.0354 154.048C81.0354 151.873 80.7935 149.698 80.7935 147.765C80.7935 146.315 80.5516 144.624 80.5516 143.174C80.3097 141.24 80.3097 139.549 80.0678 137.857C80.0678 137.132 79.8259 136.165 79.8259 135.44C79.8259 134.474 79.584 133.507 79.584 132.54C79.584 131.574 79.3421 130.849 79.3421 129.882C79.3421 128.916 79.1002 128.191 79.1002 127.224V126.982C79.1002 126.257 78.8583 125.532 78.8583 124.566C78.8583 123.599 78.6164 122.874 78.6164 121.907C78.1326 117.316 77.4069 112.966 76.9231 108.616C76.1974 103.783 75.4718 99.1912 74.7461 95.0829C74.2623 92.908 74.0204 90.733 73.5366 88.7997C72.8109 85.1748 72.3271 82.0332 71.6014 79.1333C71.1176 76.2333 70.6338 74.0584 70.15 72.3667C69.6662 69.9501 69.1824 68.5002 69.1824 68.5002C66.7635 64.1503 67.4892 60.767 62.8931 58.3504C62.8931 58.3504 62.6512 58.3504 62.4093 58.1087C61.9255 57.8671 61.1998 57.6254 60.4742 57.3837H60.2323C55.3944 55.9338 46.2023 53.0338 46.2023 53.0338H45.7185H45.4766L22.4964 54.4838L18.1422 54.7254L7.7407 60.767C3.14467 63.9086 0 69.4668 0 75.5083Z" fill="#EA4A49"/>
<path d="M43.0568 49.167C36.7675 47.9587 22.7375 48.9253 20.5605 49.892L18.8672 54.7252C20.5605 57.6251 35.3161 57.3834 46.6853 53.0336L46.2015 51.8253C45.7177 50.617 44.5082 49.4087 43.0568 49.167Z" fill="#C21E1D"/>
<path opacity="0.3" d="M57.8125 79.6167C61.199 102.575 64.3437 125.774 69.9073 148.249C72.8101 159.848 76.1966 170.965 80.3088 181.839C81.0345 184.014 82.0021 186.189 82.9697 188.606V188.123L82.4859 179.181L81.7602 167.823L81.5183 162.265V160.09C81.5183 158.157 81.5183 156.465 81.5183 154.532C81.5183 152.357 81.2764 150.182 81.2764 148.249C81.2764 146.799 81.0345 145.107 81.0345 143.657C80.7926 141.724 80.7926 140.032 80.5507 138.34C80.5507 137.615 80.3088 136.649 80.3088 135.924C80.3088 134.957 80.067 133.99 80.067 133.024C80.067 132.057 79.8251 131.332 79.8251 130.366C79.8251 129.399 79.5832 128.674 79.5832 127.707V127.466C69.9073 112.966 65.5532 95.3247 57.8125 79.6167Z" fill="#456F96"/>
<path d="M50.7976 60.0422C50.0719 61.0088 49.83 61.9755 49.3462 62.9421C48.3786 66.8087 48.6205 71.8836 50.3138 75.5085C50.3138 75.5085 50.3138 75.5085 50.3138 75.7502C51.7652 79.3751 53.4584 82.7584 54.9098 86.3833C55.8774 88.5582 56.845 90.7332 57.8126 93.1498C59.264 96.2914 60.4734 99.6747 61.9248 102.816C63.86 107.166 65.7952 111.274 67.7303 115.383C69.9074 119.733 80.0671 131.332 89.7429 142.69C90.4686 143.415 91.1943 144.382 91.6781 145.107C96.2742 150.424 103.289 160.332 106.434 164.198L122.641 154.048C111.997 138.824 87.0821 103.541 87.0821 103.541C87.0821 103.541 82.2441 88.3165 79.8252 81.3084C79.5833 80.825 79.5833 80.3417 79.3414 79.8584C78.1319 76.2335 77.1643 72.8502 75.7129 69.7086C75.2291 68.5003 74.5034 67.292 73.7777 66.0837C73.7777 66.0837 73.7778 65.842 73.5359 65.6004C73.0521 65.117 72.8102 64.3921 72.3264 63.9087C72.3264 63.9087 72.3264 63.6671 72.0845 63.6671C69.1817 60.2838 65.0695 58.1089 60.7153 57.1422C56.6031 56.4172 52.9746 57.1422 50.7976 60.0422Z" fill="#EA4A49"/>
<path opacity="0.3" d="M37.2532 141.965C34.8342 130.607 30.2382 119.732 27.3354 108.374C24.4326 97.0162 23.9489 84.4498 29.7544 74.3C28.303 88.0747 33.6247 101.366 37.0113 114.899C40.8816 130.849 41.8492 147.765 39.6722 163.956C39.1884 156.707 38.7046 149.215 37.2532 141.965Z" fill="#456F96"/>
<path d="M134.738 214.463L132.803 214.946L161.347 331.427L185.294 325.627C194.728 323.452 200.292 314.269 198.115 305.328L194.728 291.553L183.359 245.396L182.633 242.254C177.554 221.471 156.267 209.147 134.738 214.463Z" fill="#5589B9"/>
<path d="M124.093 171.206C124.818 173.864 123.125 176.281 120.464 177.006C117.803 177.731 115.143 176.039 114.659 173.623C113.933 170.964 115.626 168.548 118.287 167.823C120.948 167.098 123.367 168.789 124.093 171.206Z" fill="#4D4D4D"/>
<path d="M158.687 344.477L164.008 343.269L121.918 172.173C121.435 170.723 119.983 169.756 118.532 169.998C117.08 170.481 116.113 171.931 116.597 173.381L158.687 344.477Z" fill="#1D1715"/>
<path d="M181.908 308.469L170.539 311.128C166.91 312.094 163.04 309.919 162.072 306.295L153.848 273.187C152.88 269.562 155.299 265.937 158.928 264.97L170.297 262.312C173.925 261.346 177.796 263.52 178.763 267.145L186.988 300.253C188.197 303.878 185.778 307.503 181.908 308.469Z" fill="#4072A1"/>
<path d="M196.179 262.795L204.404 295.903C205.371 299.528 202.952 303.153 199.324 304.12L198.114 304.361L186.745 258.204L187.955 257.962C191.341 256.996 195.212 259.17 196.179 262.795Z" fill="#4072A1"/>
<path d="M179.971 270.495L155.063 276.581L156.788 283.624L181.695 277.537L179.971 270.495Z" fill="#ECF0F1"/>
<path d="M196.896 266.544L188.906 268.495L190.629 275.537L198.618 273.587L196.896 266.544Z" fill="#ECF0F1"/>
<path d="M170.781 341.577C171.99 346.41 168.845 351.485 163.766 352.693C158.686 353.902 153.606 351.002 152.397 346.169C151.187 341.335 154.332 336.261 159.412 335.052C164.491 333.602 169.571 336.502 170.781 341.577Z" fill="#1D1715"/>
<path d="M166.186 342.543C166.67 344.96 165.219 347.376 162.8 348.101C160.381 348.826 157.72 347.135 157.236 344.718C156.752 342.302 158.204 339.885 160.623 339.16C163.042 338.677 165.461 340.127 166.186 342.543Z" fill="#F6F6F6"/>
</svg>
