<svg width="169" height="107" viewBox="0 0 169 107" fill="none" xmlns="http://www.w3.org/2000/svg">
<g filter="url(#filter0_d_1929_1578)">
<path d="M149.405 0H19.4054C11.1581 0 4.45786 6.65803 4.40566 14.9051L4.09554 63.9051C4.04287 72.2263 10.7739 79 19.0952 79H105L125 99L145 79H149.095C157.342 79 164.042 72.342 164.094 64.0949L164.404 15.0949C164.457 6.77373 157.726 0 149.405 0Z" fill="white"/>
<path d="M25.9609 29.2344L22.9688 34H21.3984L24.6016 29.0078C23.763 28.7422 23.1536 28.3411 22.7734 27.8047C22.3932 27.263 22.2031 26.5807 22.2031 25.7578C22.2031 24.737 22.5547 23.9531 23.2578 23.4062C23.9661 22.8542 25.0365 22.5781 26.4688 22.5781H29.6094V34H28.2812V29.2344H25.9609ZM28.2812 23.7266H26.5078C25.5547 23.7266 24.8307 23.8906 24.3359 24.2188C23.8411 24.5469 23.5938 25.0807 23.5938 25.8203C23.5938 27.3359 24.5807 28.0938 26.5547 28.0938H28.2812V23.7266ZM43.6641 27.5859C43.6641 28.1432 43.5026 28.5677 43.1797 28.8594C42.862 29.1458 42.4141 29.3385 41.8359 29.4375V29.5078C42.5651 29.6068 43.0964 29.8203 43.4297 30.1484C43.7682 30.4766 43.9375 30.9297 43.9375 31.5078C43.9375 32.3047 43.6432 32.9193 43.0547 33.3516C42.4714 33.7839 41.6172 34 40.4922 34H36.7188V25.4375H40.4766C42.6016 25.4375 43.6641 26.1536 43.6641 27.5859ZM42.6406 31.4219C42.6406 30.9583 42.4635 30.6224 42.1094 30.4141C41.7604 30.2005 41.1797 30.0938 40.3672 30.0938H38.0156V32.9141H40.3984C41.8932 32.9141 42.6406 32.4167 42.6406 31.4219ZM42.3984 27.7109C42.3984 27.2943 42.237 27 41.9141 26.8281C41.5964 26.651 41.112 26.5625 40.4609 26.5625H38.0156V28.9766H40.2109C41.013 28.9766 41.5781 28.8776 41.9062 28.6797C42.2344 28.4818 42.3984 28.1589 42.3984 27.7109ZM53.2188 29.7109C53.2188 31.1068 52.8672 32.1979 52.1641 32.9844C51.4609 33.7656 50.4896 34.1562 49.25 34.1562C48.4844 34.1562 47.8047 33.9766 47.2109 33.6172C46.6172 33.2578 46.1589 32.7422 45.8359 32.0703C45.513 31.3984 45.3516 30.612 45.3516 29.7109C45.3516 28.3151 45.7005 27.2292 46.3984 26.4531C47.0964 25.6719 48.0651 25.2812 49.3047 25.2812C50.5026 25.2812 51.4531 25.6797 52.1562 26.4766C52.8646 27.2734 53.2188 28.3516 53.2188 29.7109ZM46.6953 29.7109C46.6953 30.8047 46.9141 31.638 47.3516 32.2109C47.7891 32.7839 48.4323 33.0703 49.2812 33.0703C50.1302 33.0703 50.7734 32.7865 51.2109 32.2188C51.6536 31.6458 51.875 30.8099 51.875 29.7109C51.875 28.6224 51.6536 27.7969 51.2109 27.2344C50.7734 26.6667 50.125 26.3828 49.2656 26.3828C48.4167 26.3828 47.776 26.6615 47.3438 27.2188C46.9115 27.776 46.6953 28.6068 46.6953 29.7109ZM62.8906 29.7109C62.8906 31.1068 62.5391 32.1979 61.8359 32.9844C61.1328 33.7656 60.1615 34.1562 58.9219 34.1562C58.1562 34.1562 57.4766 33.9766 56.8828 33.6172C56.2891 33.2578 55.8307 32.7422 55.5078 32.0703C55.1849 31.3984 55.0234 30.612 55.0234 29.7109C55.0234 28.3151 55.3724 27.2292 56.0703 26.4531C56.7682 25.6719 57.737 25.2812 58.9766 25.2812C60.1745 25.2812 61.125 25.6797 61.8281 26.4766C62.5365 27.2734 62.8906 28.3516 62.8906 29.7109ZM56.3672 29.7109C56.3672 30.8047 56.5859 31.638 57.0234 32.2109C57.4609 32.7839 58.1042 33.0703 58.9531 33.0703C59.8021 33.0703 60.4453 32.7865 60.8828 32.2188C61.3255 31.6458 61.5469 30.8099 61.5469 29.7109C61.5469 28.6224 61.3255 27.7969 60.8828 27.2344C60.4453 26.6667 59.7969 26.3828 58.9375 26.3828C58.0885 26.3828 57.4479 26.6615 57.0156 27.2188C56.5833 27.776 56.3672 28.6068 56.3672 29.7109ZM64.7266 28.8672C64.7266 26.9922 65.0026 25.5312 65.5547 24.4844C66.1068 23.4323 66.9818 22.776 68.1797 22.5156C69.6693 22.1979 70.9818 21.9401 72.1172 21.7422L72.3594 22.8828C70.5521 23.1849 69.2604 23.4245 68.4844 23.6016C67.7292 23.7734 67.1615 24.1797 66.7812 24.8203C66.4062 25.4609 66.2005 26.3333 66.1641 27.4375H66.2578C66.5807 27 66.9974 26.6562 67.5078 26.4062C68.0182 26.1562 68.5521 26.0312 69.1094 26.0312C70.1615 26.0312 70.9818 26.3724 71.5703 27.0547C72.1589 27.737 72.4531 28.6823 72.4531 29.8906C72.4531 31.2292 72.112 32.276 71.4297 33.0312C70.7474 33.7812 69.7969 34.1562 68.5781 34.1562C67.375 34.1562 66.4323 33.6953 65.75 32.7734C65.0677 31.8516 64.7266 30.5495 64.7266 28.8672ZM68.6953 33.0703C70.2839 33.0703 71.0781 32.0573 71.0781 30.0312C71.0781 28.099 70.3568 27.1328 68.9141 27.1328C68.5182 27.1328 68.1354 27.2161 67.7656 27.3828C67.401 27.5443 67.0651 27.7604 66.7578 28.0312C66.4557 28.3021 66.2214 28.5807 66.0547 28.8672C66.0547 30.237 66.2708 31.2812 66.7031 32C67.1354 32.7135 67.7995 33.0703 68.6953 33.0703ZM81.1016 32.8828H84.8984V25.4531H86.1953V32.8828H87.4219V36.9453H86.1094V34H74.7188V25.4531H76.0156V32.8828H79.8047V25.4531H81.1016V32.8828ZM92.6953 34.1562C91.4297 34.1562 90.4297 33.7708 89.6953 33C88.9661 32.2292 88.6016 31.1589 88.6016 29.7891C88.6016 28.4089 88.9401 27.3125 89.6172 26.5C90.2995 25.6875 91.2135 25.2812 92.3594 25.2812C93.4323 25.2812 94.2812 25.6354 94.9062 26.3438C95.5312 27.0469 95.8438 27.9766 95.8438 29.1328V29.9531H89.9453C89.9714 30.9583 90.224 31.7214 90.7031 32.2422C91.1875 32.763 91.8672 33.0234 92.7422 33.0234C93.6641 33.0234 94.5755 32.8307 95.4766 32.4453V33.6016C95.0182 33.7995 94.5833 33.9401 94.1719 34.0234C93.7656 34.112 93.2734 34.1562 92.6953 34.1562ZM92.3438 26.3672C91.6562 26.3672 91.1068 26.5911 90.6953 27.0391C90.2891 27.487 90.0495 28.1068 89.9766 28.8984H94.4531C94.4531 28.0807 94.2708 27.4557 93.9062 27.0234C93.5417 26.5859 93.0208 26.3672 92.3438 26.3672ZM97.3438 30.3047V29.1172H101.18V30.3047H97.3438ZM108.992 26.5469H106.211V34H104.914V26.5469H102.164V25.4375H108.992V26.5469ZM118.078 29.7109C118.078 31.1068 117.727 32.1979 117.023 32.9844C116.32 33.7656 115.349 34.1562 114.109 34.1562C113.344 34.1562 112.664 33.9766 112.07 33.6172C111.477 33.2578 111.018 32.7422 110.695 32.0703C110.372 31.3984 110.211 30.612 110.211 29.7109C110.211 28.3151 110.56 27.2292 111.258 26.4531C111.956 25.6719 112.924 25.2812 114.164 25.2812C115.362 25.2812 116.312 25.6797 117.016 26.4766C117.724 27.2734 118.078 28.3516 118.078 29.7109ZM111.555 29.7109C111.555 30.8047 111.773 31.638 112.211 32.2109C112.648 32.7839 113.292 33.0703 114.141 33.0703C114.99 33.0703 115.633 32.7865 116.07 32.2188C116.513 31.6458 116.734 30.8099 116.734 29.7109C116.734 28.6224 116.513 27.7969 116.07 27.2344C115.633 26.6667 114.984 26.3828 114.125 26.3828C113.276 26.3828 112.635 26.6615 112.203 27.2188C111.771 27.776 111.555 28.6068 111.555 29.7109ZM125.812 25.4375V29.0234H130.609V25.4375H131.906V34H130.609V30.1406H125.812V34H124.516V25.4375H125.812ZM138.273 34.1562C137.008 34.1562 136.008 33.7708 135.273 33C134.544 32.2292 134.18 31.1589 134.18 29.7891C134.18 28.4089 134.518 27.3125 135.195 26.5C135.878 25.6875 136.792 25.2812 137.938 25.2812C139.01 25.2812 139.859 25.6354 140.484 26.3438C141.109 27.0469 141.422 27.9766 141.422 29.1328V29.9531H135.523C135.549 30.9583 135.802 31.7214 136.281 32.2422C136.766 32.763 137.445 33.0234 138.32 33.0234C139.242 33.0234 140.154 32.8307 141.055 32.4453V33.6016C140.596 33.7995 140.161 33.9401 139.75 34.0234C139.344 34.112 138.852 34.1562 138.273 34.1562ZM137.922 26.3672C137.234 26.3672 136.685 26.5911 136.273 27.0391C135.867 27.487 135.628 28.1068 135.555 28.8984H140.031C140.031 28.0807 139.849 27.4557 139.484 27.0234C139.12 26.5859 138.599 26.3672 137.922 26.3672ZM24.0078 50.9922C25.6276 50.9922 26.4375 50.5443 26.4375 49.6484C26.4375 48.8047 25.7812 48.3828 24.4688 48.3828C24.0677 48.3828 23.7031 48.4193 23.375 48.4922C23.0469 48.5651 22.6172 48.7109 22.0859 48.9297L21.625 47.875C22.5104 47.4792 23.4766 47.2812 24.5234 47.2812C25.5078 47.2812 26.2839 47.4844 26.8516 47.8906C27.4193 48.2917 27.7031 48.8411 27.7031 49.5391C27.7031 50.4974 27.1693 51.125 26.1016 51.4219V51.4844C26.7578 51.6771 27.237 51.9531 27.5391 52.3125C27.8411 52.6667 27.9922 53.112 27.9922 53.6484C27.9922 54.4401 27.6719 55.0573 27.0312 55.5C26.3958 55.9375 25.5156 56.1562 24.3906 56.1562C23.1562 56.1562 22.2031 55.9714 21.5312 55.6016V54.4141C22.4844 54.862 23.4479 55.0859 24.4219 55.0859C25.1719 55.0859 25.737 54.9583 26.1172 54.7031C26.5026 54.4427 26.6953 54.0703 26.6953 53.5859C26.6953 52.5911 25.8854 52.0938 24.2656 52.0938H23.0781V50.9922H24.0078ZM35.375 56L35.1172 54.7812H35.0547C34.6276 55.3177 34.2005 55.6823 33.7734 55.875C33.3516 56.0625 32.8229 56.1562 32.1875 56.1562C31.3385 56.1562 30.6719 55.9375 30.1875 55.5C29.7083 55.0625 29.4688 54.4401 29.4688 53.6328C29.4688 51.9036 30.8516 50.9974 33.6172 50.9141L35.0703 50.8672V50.3359C35.0703 49.6641 34.9245 49.1693 34.6328 48.8516C34.3464 48.5286 33.8854 48.3672 33.25 48.3672C32.5365 48.3672 31.7292 48.5859 30.8281 49.0234L30.4297 48.0312C30.8516 47.8021 31.3125 47.6224 31.8125 47.4922C32.3177 47.362 32.8229 47.2969 33.3281 47.2969C34.349 47.2969 35.1042 47.5234 35.5938 47.9766C36.0885 48.4297 36.3359 49.1562 36.3359 50.1562V56H35.375ZM32.4453 55.0859C33.2526 55.0859 33.8854 54.8646 34.3438 54.4219C34.8073 53.9792 35.0391 53.3594 35.0391 52.5625V51.7891L33.7422 51.8438C32.7109 51.8802 31.9661 52.0417 31.5078 52.3281C31.0547 52.6094 30.8281 53.0495 30.8281 53.6484C30.8281 54.1172 30.9688 54.474 31.25 54.7188C31.5365 54.9635 31.9349 55.0859 32.4453 55.0859ZM50.1172 49.5859C50.1172 50.1432 49.9557 50.5677 49.6328 50.8594C49.3151 51.1458 48.8672 51.3385 48.2891 51.4375V51.5078C49.0182 51.6068 49.5495 51.8203 49.8828 52.1484C50.2214 52.4766 50.3906 52.9297 50.3906 53.5078C50.3906 54.3047 50.0964 54.9193 49.5078 55.3516C48.9245 55.7839 48.0703 56 46.9453 56H43.1719V47.4375H46.9297C49.0547 47.4375 50.1172 48.1536 50.1172 49.5859ZM49.0938 53.4219C49.0938 52.9583 48.9167 52.6224 48.5625 52.4141C48.2135 52.2005 47.6328 52.0938 46.8203 52.0938H44.4688V54.9141H46.8516C48.3464 54.9141 49.0938 54.4167 49.0938 53.4219ZM48.8516 49.7109C48.8516 49.2943 48.6901 49 48.3672 48.8281C48.0495 48.651 47.5651 48.5625 46.9141 48.5625H44.4688V50.9766H46.6641C47.4661 50.9766 48.0312 50.8776 48.3594 50.6797C48.6875 50.4818 48.8516 50.1589 48.8516 49.7109ZM57.5469 56L57.2891 54.7812H57.2266C56.7995 55.3177 56.3724 55.6823 55.9453 55.875C55.5234 56.0625 54.9948 56.1562 54.3594 56.1562C53.5104 56.1562 52.8438 55.9375 52.3594 55.5C51.8802 55.0625 51.6406 54.4401 51.6406 53.6328C51.6406 51.9036 53.0234 50.9974 55.7891 50.9141L57.2422 50.8672V50.3359C57.2422 49.6641 57.0964 49.1693 56.8047 48.8516C56.5182 48.5286 56.0573 48.3672 55.4219 48.3672C54.7083 48.3672 53.901 48.5859 53 49.0234L52.6016 48.0312C53.0234 47.8021 53.4844 47.6224 53.9844 47.4922C54.4896 47.362 54.9948 47.2969 55.5 47.2969C56.5208 47.2969 57.276 47.5234 57.7656 47.9766C58.2604 48.4297 58.5078 49.1562 58.5078 50.1562V56H57.5469ZM54.6172 55.0859C55.4245 55.0859 56.0573 54.8646 56.5156 54.4219C56.9792 53.9792 57.2109 53.3594 57.2109 52.5625V51.7891L55.9141 51.8438C54.8828 51.8802 54.138 52.0417 53.6797 52.3281C53.2266 52.6094 53 53.0495 53 53.6484C53 54.1172 53.1406 54.474 53.4219 54.7188C53.7083 54.9635 54.1068 55.0859 54.6172 55.0859ZM65.6328 54.75L65.875 54.0234L66.2109 53.1016L68.5312 47.4531H70.1797V56H69.0312V48.9297L68.875 49.3828L68.4219 50.5781L66.2109 56H65.125L62.9141 50.5625C62.638 49.8646 62.4479 49.3203 62.3438 48.9297V56H61.1875V47.4531H62.7734L65.0156 52.8828C65.2396 53.4557 65.4453 54.0781 65.6328 54.75ZM74.1719 47.4375V52.8672L74.1172 54.2891L74.0938 54.7344L78.7266 47.4375H80.3438V56H79.1328V50.7656L79.1562 49.7344L79.1953 48.7188L74.5703 56H72.9531V47.4375H74.1719ZM84.2656 52.8516H83.4453L83.0469 44.5781H84.6641L84.2656 52.8516ZM82.9062 55.1719C82.9062 54.4635 83.2188 54.1094 83.8438 54.1094C84.1458 54.1094 84.3776 54.2005 84.5391 54.3828C84.7057 54.5651 84.7891 54.8281 84.7891 55.1719C84.7891 55.5052 84.7057 55.7656 84.5391 55.9531C84.3724 56.1354 84.1406 56.2266 83.8438 56.2266C83.5729 56.2266 83.349 56.1458 83.1719 55.9844C82.9948 55.8177 82.9062 55.5469 82.9062 55.1719Z" fill="#1E0606"/>
</g>
<defs>
<filter id="filter0_d_1929_1578" x="0.0957031" y="0" width="168.309" height="107" filterUnits="userSpaceOnUse" color-interpolation-filters="sRGB">
<feFlood flood-opacity="0" result="BackgroundImageFix"/>
<feColorMatrix in="SourceAlpha" type="matrix" values="0 0 0 0 0 0 0 0 0 0 0 0 0 0 0 0 0 0 127 0" result="hardAlpha"/>
<feOffset dy="4"/>
<feGaussianBlur stdDeviation="2"/>
<feColorMatrix type="matrix" values="0 0 0 0 0 0 0 0 0 0 0 0 0 0 0 0 0 0 0.25 0"/>
<feBlend mode="normal" in2="BackgroundImageFix" result="effect1_dropShadow_1929_1578"/>
<feBlend mode="normal" in="SourceGraphic" in2="effect1_dropShadow_1929_1578" result="shape"/>
</filter>
</defs>
</svg>
