<svg width="98" height="268" viewBox="0 0 98 268" fill="none" xmlns="http://www.w3.org/2000/svg">
<path d="M96.8826 163.366C96.6407 164.816 96.1569 166.749 95.1893 168.682C95.1893 168.682 94.4636 170.132 93.0122 172.307C92.7703 172.79 92.2865 173.515 91.8027 174.24C90.1095 177.14 87.6905 181.007 85.2715 185.115C83.0944 188.74 80.9174 192.607 78.4984 196.715C74.6281 203.481 70.5158 210.731 67.1292 217.256C63.5008 224.264 60.598 230.064 59.3886 233.931C57.9372 238.522 61.8075 249.155 62.7751 251.572C63.017 251.814 63.017 252.055 63.017 252.055C64.4684 254.23 66.4036 256.164 68.3387 258.097C71.2415 261.238 73.4186 263.413 70.2739 263.655L67.8549 262.688L63.5008 260.997L52.1317 256.647C50.1965 255.922 48.7451 254.23 48.2613 252.297L46.568 246.014L43.9072 253.264L39.7949 251.572C43.4234 242.389 39.7949 239.006 48.987 229.581C51.6479 226.923 55.0344 206.865 59.1467 191.398C60.598 185.599 62.2913 180.524 63.9846 177.14C65.6779 173.757 67.3711 171.099 69.3063 168.441C69.5482 167.957 70.032 167.474 70.2739 166.991C72.9348 163.366 75.5956 160.466 77.2889 158.532C78.9822 156.841 79.9498 156.116 79.9498 156.116C88.4162 153.216 98.092 154.666 96.8826 163.366Z" fill="#F0A073"/>
<path d="M48.5007 229.581C48.5007 229.581 48.9845 229.581 49.2264 229.823C51.6453 231.273 53.0967 233.931 53.3386 236.589L54.0643 243.597C54.3062 246.739 56.4833 249.397 59.386 250.364L62.7726 251.572C62.7726 251.814 62.7726 251.814 62.7726 251.814C66.8848 257.614 74.8674 262.93 69.7876 263.172L51.6453 256.164C49.7102 255.439 48.2588 253.747 47.775 251.814L46.0817 245.531L43.4208 252.781L39.3086 251.089C42.937 242.389 39.3086 238.764 48.5007 229.581Z" fill="#C21E1D"/>
<path d="M71.4803 135.816L84.0589 139.441L89.6225 145.724L87.2035 154.182L81.6399 155.39C80.4304 154.182 80.9142 152.974 82.6075 152.49L79.221 147.899C75.5925 148.14 72.9317 144.757 70.5127 142.824L71.4803 135.816Z" fill="#FFAE80"/>
<path d="M23.8264 114.792L61.8041 133.883C61.8041 133.883 60.1108 140.65 59.6271 140.65C47.2903 138.475 22.1331 130.983 16.0857 126.875C8.82877 122.283 15.36 109.959 23.8264 114.792Z" fill="#456F96"/>
<path d="M41.4839 10.6355C40.5163 7.97725 40.0325 4.83563 37.8555 3.144C43.9029 2.90234 49.7084 7.25225 51.6436 12.8105C52.3693 15.2271 52.6112 17.8853 54.0625 19.8186C48.4989 19.577 43.4191 15.9521 41.4839 10.6355Z" fill="#21201D"/>
<path d="M39.5504 37.2182L38.8247 40.8432L37.8571 44.7097L36.8895 49.3013L35.922 53.8928L34.7125 60.4177L17.2959 48.093L23.8271 23.2019L39.5504 37.2182Z" fill="#FFAE80"/>
<path d="M34.4693 53.8928C40.0329 76.8506 51.1601 76.1256 52.6115 88.9337C53.5791 98.3584 43.6614 101.983 43.6614 101.983C40.7586 115.275 38.5815 126.874 39.5491 135.574C39.5491 135.574 11.2472 130.258 9.31204 129.774C13.9081 116.483 5.68359 101.983 5.68359 77.5756C5.68359 64.5259 17.7784 46.4012 17.7784 46.4012C17.7784 46.4012 33.7436 50.2678 34.4693 53.8928Z" fill="#FFAE80"/>
<path d="M53.3385 88.9339C53.3385 89.4173 53.3385 90.1422 53.3385 90.6256C53.0966 98.842 43.6626 101.984 43.6626 101.984C43.6626 102.709 43.6626 103.192 43.6626 103.917C43.6626 104.642 43.6626 105.125 43.6626 105.609C43.6626 107.542 43.4207 109.475 43.1788 111.408C42.937 115.275 42.4532 118.658 41.9694 121.8C41.4856 125.666 40.7599 129.533 40.518 132.916C40.518 133.4 40.518 133.883 40.2761 134.366C40.2761 134.366 39.5504 134.366 38.3409 134.125C35.6801 133.641 30.3583 132.916 25.0366 132.191C24.7947 132.191 24.3109 132.191 24.069 131.95C17.054 130.983 10.2809 130.016 9.55521 129.775C9.7971 128.808 10.2809 127.841 10.2809 126.875C10.5228 126.391 10.5228 125.908 10.5228 125.425C10.7647 123.25 11.0066 121.075 10.7647 118.9C10.7647 118.175 10.7647 117.45 10.7647 116.725C10.5228 112.858 9.5552 108.509 8.82951 103.917C7.86192 98.842 6.89434 93.2839 6.41054 86.759C6.41054 85.7924 6.16865 84.8257 6.16865 83.859C6.16865 81.9257 5.92676 79.7508 5.92676 77.5759C5.92676 64.7678 13.9093 52.9264 14.3931 52.2014C14.3931 52.2014 17.054 53.1681 19.9568 54.1347C19.9568 54.1347 32.7773 57.5179 45.114 74.1926C48.9844 79.0258 52.6128 82.1674 53.3385 88.9339Z" fill="#5589B9"/>
<path opacity="0.4" d="M37.8579 44.7091L36.8903 49.3007L35.9227 53.8923C33.7457 52.4423 30.3591 49.784 29.3915 48.334C26.4888 43.9841 25.5212 39.3926 25.2793 34.076C27.6983 38.1843 32.5362 41.5675 36.6484 43.9841C37.1322 44.4675 37.616 44.4675 37.8579 44.7091Z" fill="#FFAE80"/>
<path d="M51.645 29.0017C49.7098 26.3434 48.5004 24.8935 48.0166 22.7185C54.3059 -8.21412 -9.07101 1.93565 14.8767 34.5599L20.9242 33.8349C24.0688 41.5681 29.1486 46.4014 39.0664 48.093C42.4529 47.8513 45.3557 48.093 47.7747 45.6764C49.226 43.5014 49.9517 40.1181 49.7098 35.0432C49.7098 34.0766 50.1936 33.11 51.1612 32.6266C51.8869 31.9017 52.8545 30.6933 51.645 29.0017Z" fill="#FFAE80"/>
<path d="M17.2959 48.0928C15.3607 45.4345 4.23349 37.943 3.99159 23.2017C3.2659 -7.24765 45.8397 -3.38109 45.8397 10.1519C45.8397 10.1519 45.5978 7.97701 39.3085 18.3684C35.6801 24.41 29.3908 25.135 27.4556 33.3514C23.8271 48.0928 17.2959 48.0928 17.2959 48.0928Z" fill="#21201D"/>
<path d="M95.4275 267.039L76.0758 264.622C74.1406 264.38 72.2054 263.172 71.2379 261.48L68.0932 255.922L67.8513 258.097L67.3675 262.689V263.655L63.0134 263.172C63.0134 262.447 63.2553 261.722 63.2553 260.997C63.4972 257.13 62.7715 254.472 62.7715 251.572C62.7715 248.431 63.2553 245.047 66.6418 239.489C67.8513 237.314 67.6094 227.889 67.3675 217.256C67.1256 210.731 66.8837 203.723 67.1256 197.682C67.1256 192.607 67.6094 188.257 68.3351 185.115C68.8189 183.424 69.3027 181.49 69.7865 180.04C70.5122 177.866 71.2378 175.932 71.9635 173.999C72.4473 172.791 72.9311 171.582 73.4149 170.374C74.6244 167.716 75.8339 165.782 76.5596 164.091C77.7691 162.157 78.4948 160.949 78.4948 160.949C86.4773 155.874 96.1532 154.666 97.1208 163.366C97.3627 164.816 97.1208 166.749 96.8789 168.924C96.8789 168.924 96.637 170.132 95.9113 171.824C95.6694 172.791 95.1856 173.757 94.9437 174.966C93.9761 177.865 93.0085 181.732 91.5572 186.082C90.5896 188.982 89.622 192.365 88.8963 195.748C84.0584 212.665 78.7367 232.723 78.2529 240.939C77.7691 246.497 86.2354 257.855 86.2354 257.855C91.3153 262.447 100.265 265.589 95.4275 267.039Z" fill="#FFAE80"/>
<path d="M66.3994 239.488C66.3994 239.488 66.8832 239.488 67.367 239.73C70.0279 240.697 71.9631 242.63 72.9306 245.288L75.3496 252.055C76.3172 254.955 78.9781 257.13 82.1227 257.371L85.7512 257.613C85.7512 257.854 85.9931 257.854 85.9931 257.854C91.3148 262.446 100.507 265.588 95.6689 267.279L76.3172 264.863C74.382 264.621 72.4469 263.413 71.4793 261.721L68.3346 256.163L67.367 263.896L63.0129 263.413C64.2224 253.263 59.8682 250.846 66.3994 239.488Z" fill="#EA4A49"/>
<path d="M97.1215 171.581C96.3958 175.931 94.9444 180.764 93.2511 186.323C92.7673 186.323 92.5254 186.323 92.0416 186.081C91.7997 186.081 91.5578 186.081 91.3159 186.081C89.3808 185.839 87.2037 185.356 85.2685 185.114C79.9468 183.906 74.6251 182.214 69.3034 180.039C67.3682 179.314 65.433 178.348 63.4978 177.381C60.837 176.173 58.1761 174.481 55.5153 173.031C55.5153 173.031 24.0687 173.515 11.0063 170.373C5.68456 169.165 1.81423 164.815 0.846642 159.498C-0.120945 154.182 -0.604745 150.073 1.33043 144.032C1.81422 142.098 2.78181 139.924 3.74939 137.507C5.20077 134.124 7.37783 130.74 10.2806 127.115H11.2482L24.0687 129.774L38.5825 132.674C41.7272 133.157 79.7049 142.582 92.2835 152.732C93.2511 153.457 94.2187 154.423 94.9444 155.148C95.912 156.357 96.6377 157.565 97.1215 158.773C98.3309 162.156 98.089 166.506 97.1215 171.581Z" fill="#EA4A49"/>
<path d="M30.6002 30.21C31.3259 33.3516 31.8097 35.2849 29.8746 35.7682C27.6975 36.2516 24.069 34.0766 23.3433 30.935C22.6176 27.7934 24.3109 25.6184 26.488 25.1351C28.6651 24.6518 29.8745 27.0684 30.6002 30.21Z" fill="#FFAE80"/>
<path d="M29.8733 34.8016C30.1152 35.5265 29.6314 36.4931 28.6638 36.7348C27.9381 36.9764 26.9705 36.4931 26.7286 35.5265C26.4867 34.8015 26.9705 33.8349 27.9381 33.5933C28.9057 33.5933 29.6314 34.0766 29.8733 34.8016Z" fill="white"/>
<path opacity="0.3" d="M53.3378 90.6255C53.0959 98.842 43.9038 101.984 43.9038 101.984C43.9038 102.709 43.9038 103.192 43.9038 103.917C43.9038 104.4 43.9038 105.125 43.9038 105.609C43.9038 107.542 43.6619 109.475 43.6619 111.408C43.1781 115.275 42.9362 118.658 42.4524 121.8C41.9686 125.666 41.243 129.533 41.0011 132.916L38.824 132.433L24.3102 129.533L11.4897 126.875C11.2478 126.391 11.0059 125.908 10.764 125.425C11.0059 123.25 11.2478 121.075 11.0059 118.9C11.0059 118.175 11.0059 117.45 11.0059 116.725C10.764 112.858 9.79641 108.508 9.07072 103.917C8.10313 98.842 7.13555 93.2838 6.65175 86.759C6.65175 85.7923 6.40986 84.8257 6.40986 83.859C6.40986 81.9257 6.16797 79.7508 6.16797 77.5759C6.16797 64.7678 14.1506 52.9264 14.6343 52.2014C6.40986 74.4343 18.0209 79.2675 30.5995 83.1341L38.824 98.8421C44.3876 98.3587 49.7093 95.2171 53.3378 90.6255Z" fill="#456F96"/>
<path opacity="0.5" d="M80.9149 145.966C80.9149 145.966 41.4858 149.349 24.7949 131.949C20.1989 127.358 13.9096 127.841 11.0068 126.874L23.8274 129.533L38.3412 132.432C41.4858 132.916 59.1443 136.541 80.9149 145.966Z" fill="#EA4A49"/>
<path d="M38.3397 112.375L71.4796 135.816C71.4796 135.816 70.7539 143.066 70.512 143.066C57.9334 139.441 35.437 130.258 29.6315 125.425C22.6165 119.867 30.841 107.542 38.3397 112.375Z" fill="#5589B9"/>
<path d="M28.181 71.2923L41.2434 116.725C44.63 125.908 30.8419 132.674 26.7296 120.833L11.2483 76.3672C6.89415 60.9009 24.3107 58.7259 28.181 71.2923Z" fill="#5589B9"/>
<path opacity="0.5" d="M92.0416 186.082C91.7997 186.082 91.5578 186.082 91.3159 186.082C89.3807 185.84 87.2037 185.357 85.2685 185.115C79.9468 183.907 74.6251 182.215 69.3033 180.04C67.3682 179.315 65.433 178.348 63.4978 177.382C60.837 176.173 58.1761 174.482 55.5152 173.032C55.5152 173.032 24.0687 173.515 11.0063 170.374C5.68456 169.165 1.81423 164.815 0.846641 159.499C-0.120945 154.182 -0.604745 150.074 1.33043 144.032C6.41025 160.707 10.0387 176.173 60.1113 163.365C70.029 178.348 92.0416 186.082 92.0416 186.082Z" fill="#EA4A49"/>
</svg>
