<svg width="169" height="107" viewBox="0 0 169 107" fill="none" xmlns="http://www.w3.org/2000/svg">
<g filter="url(#filter0_d_1929_1572)">
<path d="M149.405 0H19.4054C11.1581 0 4.45786 6.65803 4.40566 14.9051L4.09554 63.9051C4.04287 72.2263 10.7739 79 19.0952 79H105L125 99L145 79H149.095C157.342 79 164.042 72.342 164.094 64.0949L164.404 15.0949C164.457 6.77373 157.726 0 149.405 0Z" fill="white"/>
<path d="M31.5781 36.9766H30.3125V34H22.375V36.9766H21.1094V32.7969H21.9922C22.7943 31.4479 23.4792 29.8073 24.0469 27.875C24.6198 25.9427 24.9375 24.1771 25 22.5781H30.1328V32.7969H31.5781V36.9766ZM28.8047 32.7969V23.7734H26.2031C26.1094 25.0339 25.7943 26.5495 25.2578 28.3203C24.7214 30.0859 24.0964 31.5781 23.3828 32.7969H28.8047ZM37.2188 25.4531H38.4141V29.6016L41.9531 25.4531H43.375L39.7969 29.6016L43.6797 34H42.1797L38.4141 29.6641V34H37.2188V29.6641L33.4609 34H31.9688L35.8438 29.6016L32.2734 25.4531H33.6953L37.2188 29.6016V25.4531ZM48.7109 34.1562C47.4453 34.1562 46.4453 33.7708 45.7109 33C44.9818 32.2292 44.6172 31.1589 44.6172 29.7891C44.6172 28.4089 44.9557 27.3125 45.6328 26.5C46.3151 25.6875 47.2292 25.2812 48.375 25.2812C49.4479 25.2812 50.2969 25.6354 50.9219 26.3438C51.5469 27.0469 51.8594 27.9766 51.8594 29.1328V29.9531H45.9609C45.987 30.9583 46.2396 31.7214 46.7188 32.2422C47.2031 32.763 47.8828 33.0234 48.7578 33.0234C49.6797 33.0234 50.5911 32.8307 51.4922 32.4453V33.6016C51.0339 33.7995 50.599 33.9401 50.1875 34.0234C49.7812 34.112 49.2891 34.1562 48.7109 34.1562ZM48.3594 26.3672C47.6719 26.3672 47.1224 26.5911 46.7109 27.0391C46.3047 27.487 46.0651 28.1068 45.9922 28.8984H50.4688C50.4688 28.0807 50.2865 27.4557 49.9219 27.0234C49.5573 26.5859 49.0365 26.3672 48.3594 26.3672ZM57.5 34.1562C56.2604 34.1562 55.2995 33.776 54.6172 33.0156C53.9401 32.25 53.6016 31.1693 53.6016 29.7734C53.6016 28.3411 53.9453 27.2344 54.6328 26.4531C55.3255 25.6719 56.3099 25.2812 57.5859 25.2812C57.9974 25.2812 58.4089 25.3255 58.8203 25.4141C59.2318 25.5026 59.5547 25.6068 59.7891 25.7266L59.3906 26.8281C59.1042 26.7135 58.7917 26.6198 58.4531 26.5469C58.1146 26.4688 57.8151 26.4297 57.5547 26.4297C55.8151 26.4297 54.9453 27.5391 54.9453 29.7578C54.9453 30.8099 55.1562 31.6172 55.5781 32.1797C56.0052 32.7422 56.6354 33.0234 57.4688 33.0234C58.1823 33.0234 58.9141 32.8698 59.6641 32.5625V33.7109C59.0911 34.0078 58.3698 34.1562 57.5 34.1562ZM62.9219 25.4375V30.8672L62.8672 32.2891L62.8438 32.7344L67.4766 25.4375H69.0938V34H67.8828V28.7656L67.9062 27.7344L67.9453 26.7188L63.3203 34H61.7031V25.4375H62.9219ZM73.2031 32.1406L73.3203 32.3203C73.1849 32.8411 72.9896 33.4453 72.7344 34.1328C72.4792 34.8255 72.2135 35.4688 71.9375 36.0625H70.9609C71.1016 35.5208 71.2552 34.8516 71.4219 34.0547C71.5938 33.2578 71.7135 32.6198 71.7812 32.1406H73.2031ZM83.3438 34.1562C82.1042 34.1562 81.1432 33.776 80.4609 33.0156C79.7839 32.25 79.4453 31.1693 79.4453 29.7734C79.4453 28.3411 79.7891 27.2344 80.4766 26.4531C81.1693 25.6719 82.1536 25.2812 83.4297 25.2812C83.8411 25.2812 84.2526 25.3255 84.6641 25.4141C85.0755 25.5026 85.3984 25.6068 85.6328 25.7266L85.2344 26.8281C84.9479 26.7135 84.6354 26.6198 84.2969 26.5469C83.9583 26.4688 83.6589 26.4297 83.3984 26.4297C81.6589 26.4297 80.7891 27.5391 80.7891 29.7578C80.7891 30.8099 81 31.6172 81.4219 32.1797C81.849 32.7422 82.4792 33.0234 83.3125 33.0234C84.026 33.0234 84.7578 32.8698 85.5078 32.5625V33.7109C84.9349 34.0078 84.2135 34.1562 83.3438 34.1562ZM91.9922 32.75L92.2344 32.0234L92.5703 31.1016L94.8906 25.4531H96.5391V34H95.3906V26.9297L95.2344 27.3828L94.7812 28.5781L92.5703 34H91.4844L89.2734 28.5625C88.9974 27.8646 88.8073 27.3203 88.7031 26.9297V34H87.5469V25.4531H89.1328L91.375 30.8828C91.599 31.4557 91.8047 32.0781 91.9922 32.75ZM106.703 29.7109C106.703 31.1068 106.352 32.1979 105.648 32.9844C104.945 33.7656 103.974 34.1562 102.734 34.1562C101.969 34.1562 101.289 33.9766 100.695 33.6172C100.102 33.2578 99.6432 32.7422 99.3203 32.0703C98.9974 31.3984 98.8359 30.612 98.8359 29.7109C98.8359 28.3151 99.1849 27.2292 99.8828 26.4531C100.581 25.6719 101.549 25.2812 102.789 25.2812C103.987 25.2812 104.938 25.6797 105.641 26.4766C106.349 27.2734 106.703 28.3516 106.703 29.7109ZM100.18 29.7109C100.18 30.8047 100.398 31.638 100.836 32.2109C101.273 32.7839 101.917 33.0703 102.766 33.0703C103.615 33.0703 104.258 32.7865 104.695 32.2188C105.138 31.6458 105.359 30.8099 105.359 29.7109C105.359 28.6224 105.138 27.7969 104.695 27.2344C104.258 26.6667 103.609 26.3828 102.75 26.3828C101.901 26.3828 101.26 26.6615 100.828 27.2188C100.396 27.776 100.18 28.6068 100.18 29.7109ZM114.758 26.5469H111.977V34H110.68V26.5469H107.93V25.4375H114.758V26.5469ZM120.438 34.1562C119.88 34.1562 119.37 34.0547 118.906 33.8516C118.448 33.6432 118.062 33.3255 117.75 32.8984H117.656C117.719 33.3984 117.75 33.8724 117.75 34.3203V37.8438H116.453V25.4375H117.508L117.688 26.6094H117.75C118.083 26.1406 118.471 25.8021 118.914 25.5938C119.357 25.3854 119.865 25.2812 120.438 25.2812C121.573 25.2812 122.448 25.6693 123.062 26.4453C123.682 27.2214 123.992 28.3099 123.992 29.7109C123.992 31.1172 123.677 32.2109 123.047 32.9922C122.422 33.7682 121.552 34.1562 120.438 34.1562ZM120.25 26.3828C119.375 26.3828 118.742 26.625 118.352 27.1094C117.961 27.5938 117.76 28.3646 117.75 29.4219V29.7109C117.75 30.9141 117.951 31.776 118.352 32.2969C118.753 32.8125 119.396 33.0703 120.281 33.0703C121.021 33.0703 121.599 32.7708 122.016 32.1719C122.438 31.5729 122.648 30.7474 122.648 29.6953C122.648 28.6276 122.438 27.8099 122.016 27.2422C121.599 26.6693 121.01 26.3828 120.25 26.3828ZM127.484 25.4375V30.8672L127.43 32.2891L127.406 32.7344L132.039 25.4375H133.656V34H132.445V28.7656L132.469 27.7344L132.508 26.7188L127.883 34H126.266V25.4375H127.484ZM137.766 32.1406L137.883 32.3203C137.747 32.8411 137.552 33.4453 137.297 34.1328C137.042 34.8255 136.776 35.4688 136.5 36.0625H135.523C135.664 35.5208 135.818 34.8516 135.984 34.0547C136.156 33.2578 136.276 32.6198 136.344 32.1406H137.766ZM28.1484 48.5469H25.3672V56H24.0703V48.5469H21.3203V47.4375H28.1484V48.5469ZM35.1094 56L34.8516 54.7812H34.7891C34.362 55.3177 33.9349 55.6823 33.5078 55.875C33.0859 56.0625 32.5573 56.1562 31.9219 56.1562C31.0729 56.1562 30.4062 55.9375 29.9219 55.5C29.4427 55.0625 29.2031 54.4401 29.2031 53.6328C29.2031 51.9036 30.5859 50.9974 33.3516 50.9141L34.8047 50.8672V50.3359C34.8047 49.6641 34.6589 49.1693 34.3672 48.8516C34.0807 48.5286 33.6198 48.3672 32.9844 48.3672C32.2708 48.3672 31.4635 48.5859 30.5625 49.0234L30.1641 48.0312C30.5859 47.8021 31.0469 47.6224 31.5469 47.4922C32.0521 47.362 32.5573 47.2969 33.0625 47.2969C34.0833 47.2969 34.8385 47.5234 35.3281 47.9766C35.8229 48.4297 36.0703 49.1562 36.0703 50.1562V56H35.1094ZM32.1797 55.0859C32.987 55.0859 33.6198 54.8646 34.0781 54.4219C34.5417 53.9792 34.7734 53.3594 34.7734 52.5625V51.7891L33.4766 51.8438C32.4453 51.8802 31.7005 52.0417 31.2422 52.3281C30.7891 52.6094 30.5625 53.0495 30.5625 53.6484C30.5625 54.1172 30.7031 54.474 30.9844 54.7188C31.2708 54.9635 31.6693 55.0859 32.1797 55.0859ZM43.7422 47.4375H45.1641L41.4688 51.5703L45.4688 56H43.9531L40.0469 51.6641V56H38.75V47.4375H40.0469V51.6016L43.7422 47.4375ZM50.4844 56.1562C49.2448 56.1562 48.2839 55.776 47.6016 55.0156C46.9245 54.25 46.5859 53.1693 46.5859 51.7734C46.5859 50.3411 46.9297 49.2344 47.6172 48.4531C48.3099 47.6719 49.2943 47.2812 50.5703 47.2812C50.9818 47.2812 51.3932 47.3255 51.8047 47.4141C52.2161 47.5026 52.5391 47.6068 52.7734 47.7266L52.375 48.8281C52.0885 48.7135 51.776 48.6198 51.4375 48.5469C51.099 48.4688 50.7995 48.4297 50.5391 48.4297C48.7995 48.4297 47.9297 49.5391 47.9297 51.7578C47.9297 52.8099 48.1406 53.6172 48.5625 54.1797C48.9896 54.7422 49.6198 55.0234 50.4531 55.0234C51.1667 55.0234 51.8984 54.8698 52.6484 54.5625V55.7109C52.0755 56.0078 51.3542 56.1562 50.4844 56.1562ZM55.9062 47.4375V52.8672L55.8516 54.2891L55.8281 54.7344L60.4609 47.4375H62.0781V56H60.8672V50.7656L60.8906 49.7344L60.9297 48.7188L56.3047 56H54.6875V47.4375H55.9062ZM72.6016 56.1562C71.3359 56.1562 70.3359 55.7708 69.6016 55C68.8724 54.2292 68.5078 53.1589 68.5078 51.7891C68.5078 50.4089 68.8464 49.3125 69.5234 48.5C70.2057 47.6875 71.1198 47.2812 72.2656 47.2812C73.3385 47.2812 74.1875 47.6354 74.8125 48.3438C75.4375 49.0469 75.75 49.9766 75.75 51.1328V51.9531H69.8516C69.8776 52.9583 70.1302 53.7214 70.6094 54.2422C71.0938 54.763 71.7734 55.0234 72.6484 55.0234C73.5703 55.0234 74.4818 54.8307 75.3828 54.4453V55.6016C74.9245 55.7995 74.4896 55.9401 74.0781 56.0234C73.6719 56.112 73.1797 56.1562 72.6016 56.1562ZM72.25 48.3672C71.5625 48.3672 71.013 48.5911 70.6016 49.0391C70.1953 49.487 69.9557 50.1068 69.8828 50.8984H74.3594C74.3594 50.0807 74.1771 49.4557 73.8125 49.0234C73.4479 48.5859 72.9271 48.3672 72.25 48.3672ZM85.4062 58.9609H84.1484V56H78.1641V58.9609H76.9141V54.8828H77.5859C78.2839 53.9349 78.8307 52.8229 79.2266 51.5469C79.6224 50.2708 79.8281 48.901 79.8438 47.4375H84.1797V54.8828H85.4062V58.9609ZM82.9297 54.8828V48.4609H81.0078C80.9401 49.6172 80.7161 50.7891 80.3359 51.9766C79.9609 53.1589 79.4922 54.1276 78.9297 54.8828H82.9297ZM90.7422 56.1562C89.4766 56.1562 88.4766 55.7708 87.7422 55C87.013 54.2292 86.6484 53.1589 86.6484 51.7891C86.6484 50.4089 86.987 49.3125 87.6641 48.5C88.3464 47.6875 89.2604 47.2812 90.4062 47.2812C91.4792 47.2812 92.3281 47.6354 92.9531 48.3438C93.5781 49.0469 93.8906 49.9766 93.8906 51.1328V51.9531H87.9922C88.0182 52.9583 88.2708 53.7214 88.75 54.2422C89.2344 54.763 89.9141 55.0234 90.7891 55.0234C91.7109 55.0234 92.6224 54.8307 93.5234 54.4453V55.6016C93.0651 55.7995 92.6302 55.9401 92.2188 56.0234C91.8125 56.112 91.3203 56.1562 90.7422 56.1562ZM90.3906 48.3672C89.7031 48.3672 89.1536 48.5911 88.7422 49.0391C88.3359 49.487 88.0964 50.1068 88.0234 50.8984H92.5C92.5 50.0807 92.3177 49.4557 91.9531 49.0234C91.5885 48.5859 91.0677 48.3672 90.3906 48.3672ZM101.883 48.5469H99.1016V56H97.8047V48.5469H95.0547V47.4375H101.883V48.5469ZM104.75 52.8516H103.93L103.531 44.5781H105.148L104.75 52.8516ZM103.391 55.1719C103.391 54.4635 103.703 54.1094 104.328 54.1094C104.63 54.1094 104.862 54.2005 105.023 54.3828C105.19 54.5651 105.273 54.8281 105.273 55.1719C105.273 55.5052 105.19 55.7656 105.023 55.9531C104.857 56.1354 104.625 56.2266 104.328 56.2266C104.057 56.2266 103.833 56.1458 103.656 55.9844C103.479 55.8177 103.391 55.5469 103.391 55.1719Z" fill="#1E0606"/>
</g>
<defs>
<filter id="filter0_d_1929_1572" x="0.0957031" y="0" width="168.309" height="107" filterUnits="userSpaceOnUse" color-interpolation-filters="sRGB">
<feFlood flood-opacity="0" result="BackgroundImageFix"/>
<feColorMatrix in="SourceAlpha" type="matrix" values="0 0 0 0 0 0 0 0 0 0 0 0 0 0 0 0 0 0 127 0" result="hardAlpha"/>
<feOffset dy="4"/>
<feGaussianBlur stdDeviation="2"/>
<feColorMatrix type="matrix" values="0 0 0 0 0 0 0 0 0 0 0 0 0 0 0 0 0 0 0.25 0"/>
<feBlend mode="normal" in2="BackgroundImageFix" result="effect1_dropShadow_1929_1572"/>
<feBlend mode="normal" in="SourceGraphic" in2="effect1_dropShadow_1929_1572" result="shape"/>
</filter>
</defs>
</svg>
